<?xml version="1.0" encoding="utf-8"?>
<!-- Generator: Adobe Illustrator 26.0.1, SVG Export Plug-In . SVG Version: 6.00 Build 0)  -->
<svg version="1.1"
	 id="svg23" xmlns:inkscape="http://www.inkscape.org/namespaces/inkscape" xmlns:sodipodi="http://sodipodi.sourceforge.net/DTD/sodipodi-0.dtd" xmlns:svg="http://www.w3.org/2000/svg"
	 xmlns="http://www.w3.org/2000/svg" xmlns:xlink="http://www.w3.org/1999/xlink" x="0px" y="0px" viewBox="0 0 308.8 304.9"
	 style="enable-background:new 0 0 308.8 304.9;" xml:space="preserve">
<style type="text/css">
	.st0{fill:#FFFFFF;}
	.st1{fill:#B25B5B;}
</style>
<sodipodi:namedview  bordercolor="#000000" borderopacity="0.25" id="namedview25" inkscape:deskcolor="#d1d1d1" inkscape:pagecheckerboard="0" inkscape:pageopacity="0.0" inkscape:showpageshadow="2" pagecolor="#ffffff">
	</sodipodi:namedview>
<g id="SvgjsG2686" transform="matrix(2.284354285447385,0,0,2.284354285447385,27.980055421585643,-5.609520280720151)">
	<path id="path20" class="st0" d="M45.3,54.7L44.3,67c-0.2,5.2,7.6,5.7,7.9,0.6l0.7-12.5C53.3,50,45.5,49.4,45.3,54.7z M18.7,38.7
		L18.7,38.7c0.1,0,59.7-0.9,59.9-0.6c3.7,3.3,2.8,81,0.3,83.2c-1.2,0.9-13.5,1.6-26.8,1.7c-2.4-11.2-0.6-24.2-0.6-24.2
		c0.7-5.2-7.1-6.2-7.7-1.2c0,0.1-1.9,13.2,0.5,25.5c-13.3-0.1-25.3-0.7-26-1.9C16,117.1,18.3,39,18.7,38.7z"/>
</g>
<path class="st1" d="M130,132.6c1.7-0.5,2-1.6,2.4-2.6c1-2.4,1.8-4.9,2.7-7.3c0.1-0.4,0.2-0.8,0.2-1.2c-0.1-2.7,0.6-5.1,1.3-7.6
	c0.5-1.7,0.8-3.4,1.2-5.1c0.7-3.4,1.5-6.9,2.2-10.3c0.5-2.3,0.9-4.6,1.5-6.8c0.4-1.5,1-3,1.5-4.5c0.1-0.4,0.2-0.8,0.2-1.2
	c0.2-1.8,0.2-3.6,0.5-5.3c0.5-3,1-6,1.6-9.1c0.5-2.7,1.2-5.5,1.8-8.2c0.1-0.3,0.2-0.5,0.1-0.8c-0.7-3.5,0.3-6.9,1.1-10.3
	c1-4.6,2.2-9.2,3.4-13.8c0.1-0.5,0.4-1.2,0.9-1.5c1.7-1.2,2.3-3.1,2.9-4.9c0.4-1.4,1.2-2.5,2.6-3.1c0.3-0.2,0.6-0.3,0.9-0.4
	c1-0.3,1.5-1.7,2.8-1.2c2.1,0.9,4.4,1.3,5.7,3.5c0.7,1.2,1.6,2.3,2.2,3.5c1.5,2.9,2.3,6.1,2.3,9.4c0,0.7-0.1,1.4,0.2,2
	c0.8,1.8,0.6,3.5,0.3,5.3c0,0.1-0.1,0.3-0.1,0.4c0.5,2.7,0.4,5.4,0.3,8.1c-0.1,3.5,0.7,7,0.3,10.5c-0.2,1.8-0.1,3.6-0.2,5.4
	c-0.1,1.4-0.6,2.8-0.4,4.2c0.6,3.7-0.6,7.3-0.2,11c0.1,0.5,0,1.1-0.2,1.6c-1,2.3-1,4.8-1.2,7.3c-0.2,2.3-0.4,4.6-1.7,6.7
	c-0.4,0.6-0.7,1.5-0.5,2.1c0.5,1.6-0.2,3-0.5,4.5c-0.3,1-0.2,2.1-0.3,3.1c0,0.5,0.1,1.1-0.1,1.6c-1,2.1,0,4,0.2,6
	c0,0.1,0.3,0.3,0.6,0.5c1.4-1.9,2.7-3.6,4-5.5c1.7-2.5,3.5-5.1,5-7.7c0.8-1.3,1.1-2.9,1.8-4.2c0.5-1.1,1.3-2.2,1.9-3.3
	c0.4-0.8,0.7-1.6,0.9-2.4c0.4-1.2,0.6-2.4,1.1-3.6c1.2-3.2,2.5-6.4,3.9-9.6c0.4-0.9,0.9-1.8,1.4-2.7c0.2-0.4,0.5-0.8,0.5-1.3
	c0.4-2.4,1.4-4.5,2.8-6.6c1-1.5,1.5-3.2,1.7-5.2c0.2-2.7,1.3-5.4,2.1-8.1c1.3-4.5,2.6-9,3.9-13.4c0.1-0.4,0-0.8,0-1.2
	c0-0.3-0.1-0.8,0.1-0.9c1.4-0.9,0.9-2.3,1.2-3.6c0.4-1.6,0.9-3.1,1.5-4.6c0.8-2,2-3.8,2.5-5.8c0.4-1.6,1-2.8,2.1-3.9
	c0.3-0.3,0.3-1.1,0.3-1.7c0.1-1.6,0.5-2,2.1-2.3c1.3-0.2,2.5-0.5,3.3-1.7c0.5-0.8,1.3-0.9,2.1-0.7c2.3,0.5,4.5,1.1,6.1,3.1
	c1.2,1.4,2.7,2.5,3.5,4.3c0.2,0.4,0.5,0.8,0.6,1.2c0.5,1.4,0.7,1.6,2.1,1.5c0.9,0,1.7-0.2,2.6-0.2c1.3,0,2.4,0.9,2.5,2.1
	c0.1,0.5-0.1,1.2-0.4,1.6c-1.2,1.4-2.5,2.7-3.8,4.1c0,0-0.1,0.1-0.1,0.2c-2.8,1.4-2,4-2.1,6.3c-0.1,1.8,0.3,3.7-0.2,5.3
	c-0.4,1.3-0.6,2.5-0.7,3.8c-0.1,1,0.1,2.1,0.2,3.1c0,0.6,0.1,1.2-0.1,1.8c-0.9,2.2-0.7,4.4-0.8,6.7c-0.2,2.8-0.8,5.5-1.1,8.3
	c-0.2,1.4-0.2,2.9-0.5,4.3c-0.4,1.8-0.1,3.9-1.6,5.4c-0.2,0.2-0.4,0.6-0.3,0.9c0.6,3,0.1,6,0.2,9c0,1.8-0.4,3.6-0.7,5.3
	c-0.2,1.3-0.4,2.6,0.2,3.9c0.6,1.5,0.1,2.8-0.8,4c-0.3,0.3-0.5,0.8-0.5,1.2c-0.7,3.3-1.3,6.5-1.9,9.8c-0.2,0.8-0.2,1.7-0.2,2.6
	c0,0.7,0.6,1,1.3,0.6c0.3-0.2,0.7-0.5,0.8-0.8c0.9-1.5,1.7-3.2,2.7-4.7c1.4-2.2,1.5-4.8,2.5-7.2c0.2-0.4,0.3-0.9,0.2-1.4
	c-0.2-1.2,0-2.2,1.1-3c0.3-0.2,0.3-0.7,0.4-1.1c0.6-3.7,1.3-7.3,2.9-10.8c0.3-0.5,0.6-1.1,0.5-1.7c-0.1-2.2,0.9-4.1,1.6-6.1
	c0.8-2.3,1.8-4.6,2.7-6.9c0.6-1.7,1.3-3.3,1.8-5.1c0.7-2.8,2.2-5.1,3.7-7.5c0.5-0.8,1.1-1.7,1.7-2.4c0.5-0.6,1.2-1.2,1.9-2
	c-0.1-1.3,0.7-2.6,1.8-3.6c1.7-1.6,3.8-3,5.5-4.6c1.8-1.7,4.3-1.9,6.2-3.4c0.4-0.3,1.2-0.6,1.7-0.4c2,0.7,4,1.4,5.1,3.5
	c0.1,0.3,0.3,0.6,0.4,0.9c2.4,3.7,3,7.9,3.2,12.1c0,0.6,0.2,1.2,0.3,1.8c0.3,2,0.7,4.2-1.6,5.3c1.4,3.1,1.1,6-0.1,8.9
	c-0.3,0.7-0.5,1.3-0.4,2.1c0.2,2.1,0.2,4.2-1.3,6c-0.2,0.2-0.3,0.7-0.3,1.1c0,2.8-0.9,5.3-2.3,7.7c-0.1,0.1-0.2,0.2-0.2,0.3
	c-0.6,2.9-2.6,5.2-3,8.2c-0.2,1.4-0.8,2.8-1.6,4c-1,1.5-1,3.1-1.5,4.7c-0.5,1.6-0.7,3.4-1.3,5c-0.7,2.1-1.6,4.2-2.5,6.3
	c-0.1,0.3-0.3,0.6-0.3,0.9c-0.3,4.2-2.1,7.8-3.8,11.5c-0.1,0.3-0.4,0.6-0.4,0.9c-0.1,3-1.8,5.4-2.5,8.2c-0.1,0.4-0.3,0.8-0.6,1
	c-0.7,0.5-0.9,1.2-1.1,2c-0.1,0.6-0.5,1.2-0.8,1.8c-1.1,2.2-2.3,4.4-3.2,6.8c-0.9,2.5-1.9,5.2-3.4,7.3c-1.9,2.7-3.5,5.5-5,8.5
	c-1,2-1.9,4.1-3.3,5.7c-2.1,2.3-3,5.1-4.5,7.6c-1.9,3.1-3.1,6.4-4.7,9.6c-0.7,1.4-1.8,2.7-2.6,4c-1.4,2.2-3,4.2-3.9,6.7
	c-0.4,1.2-0.8,2.4-1.4,3.5c-0.7,1.3-1.4,2.5-2.6,3.4c-0.8,0.6-1.2,1.8-1.7,2.8c-0.9,2.2-1.8,4.5-2.6,6.7c-0.5,1.4-0.9,2.8-1.3,4.2
	c-0.2,0.6-0.5,1.2-0.7,1.9c-1,2.7-2.1,5.3-3,8c-1.4,4.3-2.8,8.6-3.8,13c-0.4,1.8-1.6,3.6-1,5.6c0.1,0.2-0.1,0.5-0.2,0.8
	c-1.2,3.5-1.8,7.2-2.4,10.9c-0.1,0.7-0.4,1.4-0.4,2.2c-0.1,1-0.1,2,0,3c0.2,1.8-0.9,3.3-2.8,3.3c-0.4,0-0.8-0.3-1.2-0.6
	c-0.9-0.7-1.8-1.4-2.7-2.2c-0.1-0.6-0.2-1.4-0.4-2.1c-0.3-1-0.2-1.9,0-3c0.3-1.3,0-2.9-0.3-4.3c-0.2-0.8-2.6-1.6-3.3-1.1
	c-2,1.3-4.1,1.9-6.6,1.6c-1-0.1-2.2,0.5-3.2,0.9c-0.9,0.4-1.7,0.6-2.7,0.4c-1.5-0.3-2.9-0.3-4.2,0.7c-0.4,0.3-1,0.5-1.5,0.4
	c-2.3-0.5-4.4,0.2-6.4,0.9c-1.7,0.6-3.4,0.2-5.1,0.2c-2,0-3.6,0.7-5.3,1.3c-2.2,0.8-4.2,1.9-6.4,2.9c-0.9,0.4-1.7,0.7-2.7,0.3
	c-0.3-0.1-0.8-0.2-1.2,0c-1.1,0.3-2,0.1-3.1-0.4c-0.8-0.4-1.9-0.3-3.1-0.4c-0.5-1.1-1-2.3-1.7-3.4c-0.6-1-0.6-1.7,0.4-2.6
	c1.1-1.1,0.7-2.7-0.8-3.2c-0.5-0.2-1.2,0-1.6,0.2c-0.9,0.5-1.7,0.7-2.7,0.5c-0.6-0.2-1.3,0-2,0c-1.2,0.1-2.4,0.1-3.5-0.6
	c-0.7-0.4-1.3-0.4-1.8,0.2c-1.9,2.4-4.7,3.4-7.5,4.4c-2.8,1-5.7,1.8-8.6,2.6c-0.7,0.2-1.4,0.3-2.2,0.4c-2.2,0.1-4.2,0.6-6,2
	c-0.6,0.4-1.1,0.6-1.8,0c-0.9-0.8-2-1.3-2.8-2.2c-0.5-0.5-0.9-1.4-0.8-2.1c0.1-2.3,0.5-4.5,1.4-6.8c1.4-3.4,2.4-6.9,1.5-10.8
	c-0.7-2.9-1-6.2,1-9c0.6-0.9-0.2-3.7-1-4.4c-1.9-1.8-2.4-3.6-1.1-5.9c1-1.8,2.4-3.4,3.6-5c0.8-1.1,1.6-2.1,2.4-3.2
	c0.5-0.7,0.3-1.5-0.4-1.9c-0.7-0.5-1.5-0.9-2.2-1.4c-0.9-0.6-2.2-1.1-2.7-1.9c-1.2-2-1.1-4.2,0-6.3c0.7-1.2,1.6-2.3,2.5-3.4
	c0.4-0.5,1-1.1,0.4-1.7c-0.4-0.4-1.2-0.5-1.8-0.6c-0.2,0-0.4,0.1-0.6,0.2c-1.8,1.2-3.3,0.7-4.7-0.6c-0.3-0.3-0.7-0.6-1.2-0.9
	c-0.7,0.9-0.2,1.9-0.2,2.7c0,4.5-0.1,8.9,0.2,13.4c0.2,3.2,0.2,6.4,0,9.6c-0.2,3.4-0.9,6.7-2.4,9.8c-0.4,0.7-0.4,1.6-0.5,2.5
	c-0.1,0.4,0,0.8-0.2,1.2c-0.8,2-0.6,4.1-0.5,6.1c0,0.2,0,0.5,0.1,0.6c1.4,1.3,0.5,2.5,0,3.8c-0.7,2-1.5,4-2.2,6
	c-0.4,1.3-0.9,2.6-1,3.9c-0.1,2.2-1.2,4.2-1.7,6.3c-0.2,0.9-0.7,1.9-1.8,1.9c-1,0.1-1.7-0.5-2.4-1.3c-0.6-0.8-1.3-1.5-2-2.2
	c-1.5-1.5-2.1-3.2-1.3-5.3c0.5-1.4,1-2.8,1.5-4.1c0.1-0.2,0.4-0.5,0.3-0.7c-0.6-2,0.8-3.9,0.1-5.9c-0.2-0.5-0.3-1.3,0-1.7
	c1.1-2,1-4.3,1.4-6.4c0.2-0.8,0.5-1.6,0.8-2.4c0.2-0.6,0.5-1.2,0.7-1.9c0.7-2.9,1.5-5.8,2.2-8.7c0.1-0.5,0.2-1.1,0.2-1.6
	c-0.1-2.3-0.2-4.7,0.6-6.9c0.3-0.8,0.1-1.7,0-2.6c-0.4-2.2-0.6-4.4,0.1-6.7c0.3-1,0.2-2.2,0.1-3.4c0-1.8-0.1-3.6-0.3-5.4
	c-0.1-1.3-0.2-2.5-0.6-3.7c-1.5-4.2-2.5-8.4-3.1-12.8c-0.1-0.7-0.4-1.5-0.8-2.2c-3.7-5.9-7.3-11.8-9.9-18.3
	c-1.3-3.2-2.5-6.4-3.9-9.6c-1-2.2-2.1-4.3-3.1-6.5c-1-2-2.2-3.9-3.4-5.8c-1.6-2.4-2.4-5.3-3.5-8c-1.7-4.1-1.6-8.3-1.2-12.6
	c0.2-1.9,0.7-3.8,0.2-5.8c-0.3-1.1,0.2-1.8,1.5-1.9c1.8-0.1,3.5-0.5,5.3-1.1c0.7-0.2,1.6-0.1,2.3,0.2c2,0.7,4,1.4,6,2.2
	c0.7,0.3,1.4,0.8,2.1,1.2c4.5,2.6,9.4,4.9,13.2,8.6c1.6,1.5,2.9,3.3,3.9,5.2c1,1.7,2.5,3.1,3.8,4.6c0.6,0.7,1.1,1.3,1.7,2
	c1.7,1.9,3.4,3.7,5.1,5.6c0.5,0.6,1.1,1.1,1.7,1.7c1.2,1.3,1.8,1.3,3.2,0.3c1.3-0.9,2.2-2.1,2.4-3.7c0.2-2,0.5-4.1,0.6-6.2
	c0.2-3.5-0.6-6.9,0.3-10.4c0.1-0.6-0.2-1.3-0.2-1.9c-0.2-4.6-0.7-9.2-0.6-13.8c0.1-3.8,0.2-7.7-0.7-11.5c-0.3-1.4-0.1-2.9-0.2-4.4
	c0-0.5,0.1-1-0.2-1.4c-1.2-1.6-0.7-3.5-0.9-5.2c-0.1-0.6,0.1-1.4,0.4-1.9c0.7-1.1,0.6-2.1,0.3-3.2c-0.8-3.1-1.4-6.2-0.2-9.4
	c0.2-0.4,0.1-0.9,0.1-1.4c0-0.8,0-1.6,0-2.3c0-0.4,0.2-0.9,0-1.2c-1.2-2.3-0.7-4.8-0.7-7.3c0-2,0.2-4,0.2-6c0.1-4.9,0.9-9.7,3-14.2
	c0.8-1.7,2.2-3.1,3.5-4.6c0.3-0.3,1.1-0.1,1.7-0.3c0.6-0.1,1.3-0.2,1.8-0.6c0.7-0.7,1.4-0.9,2.4-0.7c0.6,0.2,1.4,0.1,2,0.4
	c0.8,0.4,1.7,0.8,2.3,1.4c0.9,1,1.5,2.2,2.8,2.9c0.3,0.2,0.5,0.6,0.7,1c0.8,2,2.3,3.7,2.7,5.9c0.1,0.6,0.7,1.1,1,1.7
	c1,1.7,1.7,3.5,2,5.4c0.3,2.2,1.7,4,2.6,6c0.8,1.7,1.2,3.5,1.4,5.4c0.1,1,0.5,2.1,0.6,3.1c0.3,1.6,0.7,3.3,0.6,4.9
	c-0.1,3.1,0,6.2,0.4,9.4c0.2,1.9,0.2,3.8,0.1,5.7c-0.3,3.6-0.4,7.2,0.4,10.8c0.2,1,0.1,2,0.2,3c0.5,3.7,0.8,7.4,1.5,11.1
	c0.4,1.9,1.1,3.8,1.2,5.8c0,0.4,0.1,0.8,0.3,1.1C129.2,128.1,130.4,130,130,132.6z M124.1,224.5c-0.2-1.4-0.9-2.3-1.9-2.4
	c-0.7-0.1-1.4,0-1.6,1C121.9,223.6,123,224,124.1,224.5c0,0.7,0.3,1.1,1.1,1.1c0.8,0,1.2,0.4,1.5,1.1c0.6,1.9,1.3,3.7,2.1,5.8
	c0.6-0.1,1.4-0.2,2.1-0.4c2.1-0.7,4.2-1.4,6.2-2.2c1.1-0.4,2.3-0.7,3.4-1.3c2.7-1.6,5.3-3.3,8-4.9c0.2-0.1,0.2-0.4,0.3-0.5
	c-1.2-0.4-2.3-0.8-3.5-1.2c-0.3-0.1-0.8-0.2-0.9-0.1c-1.1,1.1-2.5,1.1-3.9,0.9c-0.2,0-0.4,0.1-0.5,0.2c-1.8,1.3-3.6,2-5.9,1.4
	c-2.8-0.6-5.7,0.4-8.5-0.3C125.1,224.1,124.6,224.4,124.1,224.5z M151.3,257.7c0-0.2,0.1-0.4,0.1-0.6c-2.1-0.9-3.5-2.9-6.1-2.9
	c-1.7,0-3.3-0.2-5-0.4c-0.5,0-1,0-1.3-0.2c-1.2-0.9-2.3-0.7-3.6-0.2c-0.6,0.2-1.2,0.3-1.7,0.5c-2.5,0.6-5,1-7.4,1.7
	c-1.1,0.3-1.9,0.1-2.8-0.5c-0.8-0.6-1.7-1.2-2.7-1.8c-0.9-1.7-0.4-3.1,1.3-4.1c1-0.6,2.1-1.1,3.1-1.8c1-0.6,1.9-1.4,2.7-2.2
	c1.3-1.3,2.7-2.3,4.5-2.7c0,0,0-0.2,0-0.2c-1.4-0.2-2.7-0.4-4-0.5c-0.9-0.1-1.9,0.1-2.8,0.1c-0.4,0-0.8,0.1-1.2,0
	c-1-0.5-1.8-0.1-2.6,0.5c-0.6,0.5-1.2,0.7-2,0.3c-0.9-0.4-1.8-0.4-2.7,0.4c0.3,0.8,0.6,1.6,0.8,2.4c0.5,2.6,0.7,5.1-1.5,7.2
	c-1.6,1.5-2.9,3.4-5.2,4.5c0.6,0.5,0.9,1,1.4,1.1c1.3,0.5,1.8,1.5,2.1,2.7c0.3,1.1,0.8,2.2,1.3,3.5c2.2-0.8,4.3-1,6.5-1.1
	c2.3-0.1,4.7-0.3,7-1.2c1.5-0.6,3.1-0.7,4.7-0.5c0.5,0.1,0.9,0,1.4-0.1c0.8-0.1,1.4,0,2,0.5c2.3,2.1,4.9,1,7.4,0.4
	c0.2-0.1,0.5-0.3,0.6-0.5c0.5-1.1,1.6-1.6,2.5-2.2C149.2,259.2,150.2,258.5,151.3,257.7z M137.9,207.6c1.5-0.6,3.1-1.1,4.4-2
	c1.1-0.7,2-1.9,2.7-3.1c0.7-1.2,1.5-2.2,2.6-2.9c2.5-1.5,4.9-3.2,7.5-4.6c2-1.1,3.8-2.7,6.2-3.1c0.3,0,0.6-0.3,0.8-0.5
	c1.2-0.9,2.4-1.9,3.6-2.8c2.4-1.6,4.9-3,7.2-4.7c1.1-0.8,2.3-1.3,3.5-1.7c1.5-0.4,3.1-1,3.7-1.9c0.2-1.8,0.3-3.1,0.5-4.4
	c0.6,0.1,0.9,0.1,1.2,0.1c0.4,0,0.7-0.1,1.1-0.1c-1-1.9-1.5-2.1-3.2-1.8c-0.8,0.2-1.6,0.6-2.4,0.9c-0.7,0.2-1.4,0.6-2.1,0.6
	c-1.5,0-3.1-0.1-4.6-0.2c-1.1-0.1-1.9,0-2.8,0.7c-0.9,0.7-2,1.1-3,1.5c-1.6,0.6-3.1,0.2-4.9-0.8c0.3,0.9,0.3,1.6,0.6,1.8
	c1.3,0.7,2.7,1.2,4.5,2c0.2,0.7,0.6,1.8,0.7,2.9c0.3,2-0.7,3.2-2.6,3.8c-1.2,0.4-2.3,0.8-3.7,0.4c-0.3-0.1-0.9,0.2-1.3,0.4
	c-1.3,0.7-2.6,1.4-4.2,1.2c-1-0.1-1.8,0.2-2.5,0.9c-0.3,0.3-1.3,0.6-1.5,0.4c-1-0.9-1.8-0.8-2.9-0.1c-0.3,0.2-0.9,0.1-1.4,0.1
	c-1.9-0.2-2.1-0.1-2.1,1.8c0,1.1-0.2,1.8-1.3,2.1c-0.7,0.2-1.3,0.8-2,1.2c-0.8,0.5-1.6,1.4-2.5,1.5c-1.5,0.2-2.5,1-3.3,2
	c-1.1,1.2-2.3,2.2-3.8,2.9c-0.4,0.2-0.7,0.7-1.3,1.4c1.8,0.3,3.1,0.6,4.3,0.8c0.5,0.1,1.1,0,1.3,0.3
	C136.1,205.4,136.9,206.4,137.9,207.6z M182.8,161.7c-1,1.4-2.3,1.5-4,1.1c-1.6-0.4-3.5,0.6-4.2,2.4c-0.4,1-1,1.7-1.9,2.2
	c-0.4,0.3-0.9,0.5-1.2,0.7c1,2.5,1.9,2.9,3.9,2.1c1.1-0.4,2.3-0.8,3.4-1.1c2-0.4,4.1-0.7,6.1-1c2-0.3,3.9-0.6,5.9-0.9
	c1-0.2,2.1-0.3,3.1-0.5c1.1-0.2,2.2-0.6,3.3-0.9c0.7-0.2,1.6,0,2.1-0.3c1.7-1,3.3-1.7,5.3-1.9c3-0.4,6-1.2,9-1.7
	c0.5-0.1,1.2,0.1,1.7,0.4c1.6,1.2,3.3,0.9,4.7,0.2c1.7-0.8,3.3-2,4.7-3.3c3-2.6,4.9-6,6.1-9.9c-0.9-1.1-2.3-1.2-3.6-1.5
	c-0.3-0.1-0.8,0.3-0.9,0.5c-0.4,0.9-1.2,1.1-2,1.5c-1.7,0.8-3.5,1.5-4.9,2.7c-2,1.7-4.2,2.5-6.6,3.2c-1.3,0.4-2.5,1-3.3,2.1
	c-1.1,1.5-2.5,2-4.3,2.1c-0.7,0-1.4,0.3-2.1,0.5c-1.2,0.5-2.5,1-3.7,1.6c-0.7,0.3-1.3,0.6-1.9,1c-1.2,1-2.6,1.3-4.1,0.9
	c-1.7-0.4-1.6-0.4-2.7,1c-0.3,0.4-0.9,0.9-1.2,0.8c-1.7-0.6-3.8-0.7-4.8-2.6C184.5,162.3,183.9,161.8,182.8,161.7z M166.6,226.6
	c1.4,0.5,2.6,0,3.8-0.2c1.9-0.4,3.8-1,5.9-1c1.7,0,3.4-0.5,5.1-0.9c0.6-0.2,1.3-0.7,1.7-1.3c1.2-1.6,2.2-3.3,3.3-5
	c1.3-2,1.4-2.1,3.7-1.2c0.3,1.6,0.3,1.6-0.7,2.6c-1.4,1.3-1.5,1.9-0.8,4c1.3-0.1,2.5,0,3.3,1.5c0.4,0.7,1.5,0.2,1.8-0.8
	c0.6-1.9,1-3.8,2-5.5c0.7-1.2,1.4-2.5,2.2-4.1c0,0-0.1-0.5-0.2-1c3.1-1.7,4-4.7,5-7.6c-1-0.7-1.7-0.1-2.4,0.1
	c-1.7,0.6-3.2,1.5-5.1,1.6c-1.3,0.1-2.6,0.5-3.8,1c-2.5,1.2-4.4,3.3-6.5,5c-0.6,0.5-1.4,0.9-2.2,1.1c-2.1,0.6-4.7,0.2-6.1,2.7
	c-0.2,0.3-0.8,0.4-1.3,0.6c-2.3,0.8-4.6,1.5-6.8,2.3c-0.5,0.2-1.1,0.5-1.2,0.9C166.6,222.9,165.8,224.6,166.6,226.6z M124.4,171.9
	c-1.7-0.9-1.7-0.9-2.8-0.1c-1.8,1.5-3.7,2.8-6,3.4c-0.6,0.2-1.4,0.5-1.7,0.9c-0.9,1.4-2.5,1.8-3.8,2.5c-1.2,0.6-2.3,1.3-3.4,2
	c-0.8,0.5-1.4,1.3-2.2,1.7c-2.1,0.9-3.6,2.4-5.4,3.6c-0.7,0.5-1.1,1.1-0.8,1.9c0.3,1,0.3,2.2,1.5,2.7c0.3,0.1,0.8,0,1.1-0.1
	c0.4-0.1,0.8-0.4,1.3-0.6c0.6-0.2,1.2-0.3,1.6,0.3c1.4,1.8,3.1,1.5,4.9,0.7c2.1-1,4.2-2.1,6.2-3.3c2.6-1.4,5.1-2.8,7.7-4.3
	c2.9-1.7,5.3-4,8.5-5.2c0.2-0.1,0.5-0.3,0.6-0.5c0.9-1.5,1.8-3,2.8-4.5c-2.3-0.5-2.3-0.5-4.8,0.8c-1.2,0.6-2,1.5-2.3,2.9
	c-0.1,0.4-0.2,0.8-0.4,1.1c-0.7,0.8-3,0.9-3.9,0.2c-0.8-0.6-1.1-2.7-0.5-3.7c0.1-0.2,0.3-0.3,0.4-0.5
	C123.3,173.3,123.8,172.6,124.4,171.9z M79.9,206.4c1.2-1.8,2.5-3.6,3.6-5.5c0.3-0.5,0.4-1.2,0.3-1.7c0-0.4-0.4-1-0.7-1
	c-1.7-0.2-2.4-1.5-3.5-2.4c-1.3-1-1.4-2-0.8-3.3c0.4-1.1,0.4-2.1-0.5-3.1c-1.2-1.4-1.2-3-0.4-4.7c0.1-0.2,0.3-0.4,0.4-0.7
	c0.2-0.7,0.1-1.3-0.6-1.4c-1.3-0.2-1.9-1.2-2.6-2.1c-1.2-1.5-1.2-3-0.1-4.5c0.8-1.1,1.7-2.2,2.5-3.4c0.2-0.3,0.3-0.8,0.6-1.5
	c-0.6,0.1-1.1,0.1-1.3,0.3c-0.6,0.6-1.2,1.2-1.8,1.8c-0.4,0.4-1.1,1-1.4,0.9c-1.4-0.6-3-0.4-4.1-1.6c-0.2-0.2-0.4-0.5-0.7-0.7
	c-0.6-0.5-1.8-0.5-2.4,0c-0.7,0.6-0.2,1.2,0.1,1.8c0.7,1.5,1.5,2.9,1.8,4.4c0.3,1.1,0.9,1.9,1.4,2.8c0.7,1.1,1.5,2.2,2.3,3.3
	c0.6,0.9,1.4,1.8,1.9,2.8c0.8,1.5,1.8,3,2.2,4.7c0.4,1.5,0.6,3.1,1,4.6c0.7,2.7,1,5.5,1.6,8.2C78.7,205,78.7,206.1,79.9,206.4z
	 M165.6,139.9c-0.9-0.7-1.4-1.1-2-1.5c-1-0.7-1.5-0.6-1.9,0.4c-0.5,1.3-1.5,1.9-2.6,2.2c-1.8,0.5-3.7,0.7-5,2.2
	c-0.2,0.2-0.5,0.2-0.7,0.3c-1.7,0.5-3.3,1.1-5,1.3c-1.7,0.2-2.6,1.1-3.2,2.5c-1,2.2-2.4,4-4.5,5.2c-0.4,0.3-0.9,0.6-1.2,1.1
	c-0.5,1-1.2,1.7-2.4,2c-0.4,0.1-0.8,0.6-0.8,1c0,0.9-0.7,1.4-1.2,2c-0.4,0.5-0.8,1.1-0.9,1.7c-0.3,0.9,0.2,1.5,1.2,1.2
	c1-0.3,2-0.7,3-1.2c1.9-0.8,1.9-0.9,1.8-3c-0.2-3.3,2.4-5.7,5.8-5.4c2,0.2,4,0.4,5.3-1.6c0.3-0.5,1.4-1.1,1.8-0.9
	c1.8,0.8,3,0,4.2-1.1c0.4-0.4,0.9-0.5,1.4-0.8c0.7-0.3,1.4-0.7,2.1-1c-0.2-2.1,0.2-2.9,1.9-4.1C163.5,141.9,164.3,141.1,165.6,139.9
	z M206.3,135.7c-0.8,0.6-1.6,1.2-2.5,1.8c-1.5,0.9-3.1,1.8-4.6,2.7c-0.3,0.2-0.7,0.3-1,0.2c-1.7-0.3-3,0.9-4.5,1.2
	c-1.4,0.2-1.9,2.2-1.1,3c0.8,0.8,2.8,0.9,3.4-0.1c0.6-1.2,1.7-1.4,2.7-1.8c3.6-1.6,7.2-3.3,10.7-4.9c0.8-0.4,1.1-0.9,0.9-1.8
	c-0.4-1.7-0.8-3.3-1.2-5c-0.1-0.2-0.3-0.5-0.4-0.7c-0.3-0.9-0.7-1.7-0.9-2.6c-0.2-1.1,0-2.4-0.3-3.5c-0.6-2.2-0.3-4.3,0.4-6.4
	c0.1-0.3,0.1-0.6,0.1-1.2c-0.9,0.3-1.8,0.4-2.4,0.9c-1.2,1-2.2,2.1-3.3,3.2c-0.9,0.9-0.5,2.1,0.8,2.4c0.5,0.1,1,0.2,1.5,0.2
	c0.2,0.7,0.4,1.4,0.6,2c0.5,1.7-0.2,2.8-1.9,3.1c-0.6,0.1-1.1,0.3-1.7,0.6c-1.9,0.7-3.7,1.4-5.5,2.2c-1.3,0.6-2.6,1.3-3.8,2.1
	c-0.6,0.4-1.2,1-1.1,1.8c2.1-0.5,4-0.9,6-1.3c0.1,0,0.2-0.1,0.4-0.2c1.2-0.7,2.4-1.4,3.6-2.1c1.5-0.8,2.9-0.3,3.6,1.3
	C205.2,133.8,205.7,134.7,206.3,135.7z M111.3,244.6c-1,0.2-1.8,0.6-2.6,0.4c-0.7-0.2-1.3,0-1.9,0.3c-0.6,0.3-1.2,0.7-1.8,0.8
	c-3.7,0.6-7.5,1.1-11.3,1.6c-0.9,0.1-1.5,0.5-1.5,1.5c-0.1,1.2-0.3,2.4-0.2,3.6c0.2,1.7,0,3.5,1.5,5c0.6-0.1,1.3-0.1,2-0.3
	c1.9-0.8,3.8-1.6,5.7-2.5c3.6-1.6,6.7-3.9,9.4-6.7C111.8,247.1,112,246.2,111.3,244.6z M128.1,190.2c-1.9-0.6-2.3-0.5-3,0.6
	c-0.6,0.9-1.3,1.2-2.2,1.5c-1.3,0.5-2.5,1.1-3.7,1.8c-2.6,1.5-5.1,3.1-7.7,4.6c-1,0.6-2.1,1-3.2,1.5c-0.2,0.1-0.5,0.3-0.7,0.3
	c-2.8-0.2-3.9,1.9-4.9,4c-0.5,1-0.9,2-1.9,2.8c-0.9,0.7-1.3,1.7-0.3,2.9c0.5-0.2,1-0.3,1.4-0.5c2.7-1.2,5.4-2.4,8-3.7
	c3.6-1.9,7.2-3.9,10.7-5.8c1-0.5,1.4-1.3,1.6-2.5c0.4-2.3,1-4.6,3.5-5.7C126.6,191.5,127.2,190.9,128.1,190.2z M189,229.7
	c-0.4,0.2-1,0.5-1.7,0.8c-1.1,0.5-2.1,1.3-3.3,1.4c-2,0.3-3.3,1.3-4.4,2.8c-0.6,0.9-1.4,1.3-2.5,1.4c-1.1,0.1-2.1,0.3-3.1,0.5
	c-0.7,0.2-1.3,0.7-1.3,1.6c0,0.9,0.6,1.3,1.4,1.5c0.5,0.1,0.9,0.1,1.4,0.2c1.6,0.4,3.2,0.7,4.5,2c0.7,0.8,1.6,0.6,2.5,0
	c0.4-0.3,1-0.7,1.5-0.8c2.1-0.6,3.9-1.2,4.5-3.7c0.5-1.9,1.4-3.7,2.1-5.6c0.1-0.2,0.2-0.4,0.2-0.6
	C190.9,230.3,190.5,229.8,189,229.7z M139.8,179.3c0.6,0,0.8,0,1-0.1c3.1-1.3,6.2-2.7,9.4-4c1.2-0.5,2.3-1,3.5-1.4
	c2.6-0.9,4.2-2.9,5.8-4.9c-0.5-1-1.3-0.7-2-0.6c-1.6,0.4-3.1,0.5-4.5-0.8c-0.9-0.8-2.1-0.7-2.8,0.2c-0.6,0.7-1.2,0.8-1.9,0.8
	c-0.7,0-1.3,0-2,0.1c-1,0-1.5,0.6-1.9,1.5c-0.7,1.9-1.4,3.8-2.3,5.6C141.6,177,140.7,178,139.8,179.3z M192.6,201.7
	c0.1,0.1,0.2,0.2,0.2,0.4c2.1-0.4,4.3-0.7,6.4-1.2c1.3-0.3,2.4-0.3,3.3,0.9c0.8,1.1,2,0.7,2.7-0.6c0.5-0.9,1.1-1.7,1.6-2.5
	c0.5-0.9,1.1-1.9,1.3-2.9c0.3-1.1,0.5-2.1,1.6-2.8c0.4-0.2,0.6-0.9,0.9-1.4c-1-1.1-1.9-1.2-2.9-0.4c-1,0.7-2.1,1-3.4,1
	c-0.8,0-1.6,0.3-2.3,0.6c-0.9,0.3-1.7,0.7-2.6,1c-0.6,0.2-1.3,0.3-1.9,0.6c-0.8,0.4-1.6,0.9-1.4,2c0.4,2-0.7,3.1-2.1,4.2
	C193.6,201,193.1,201.4,192.6,201.7z M182.6,248.4c-0.5,0.1-0.8,0.2-1.1,0.3c-2.8,0.7-5.5,1.4-8.3,2.1c-0.8,0.2-1.5,0.4-2.2,0.8
	c-1.7,1-3.4,1.9-4.9,3.1c-0.9,0.7-1.6,1.8-2.1,2.8c-0.5,1.1,0.6,2.4,1.9,2.4c0.6,0,1.4-0.1,1.9-0.4c1.5-0.8,3-1.8,4.6-2.4
	c3.1-1.2,5.7-3.1,8.2-5.1C181.7,251.3,183,250.3,182.6,248.4z M169.1,211.8c-0.9-0.8-1.8-0.7-2.8-0.4c-1.1,0.3-2.2,0.6-3.3,0.8
	c-0.8,0.1-1.4,0.2-1.8,1c-0.6,1-1.6,1.3-2.8,1.2c-0.6,0-1.3,0-1.7,0.4c-1.2,1.2-2.9,1.4-4.4,1.8c-0.6,0.2-1.2,0-1.8,0.2
	c-0.5,0.2-1.1,0.6-1.2,1.1c-0.1,0.3,0.4,1.1,0.8,1.2c0.9,0.3,2.1,0.7,2.9,0.3c1.8-0.9,3.8-0.8,5.7-1.2c0.6-0.1,1.3-0.2,1.6-0.6
	c1.1-1.5,2.7-1.8,4.3-2.3C166.4,214.7,168.2,213.8,169.1,211.8z M122.2,212.3c-0.8-1.2-1.6-1.1-2.3-0.8c-2.7,0.7-5.4,1.5-8.1,2.3
	c-0.4,0.1-0.9,0.4-1.1,0.8c-0.7,1-1.6,1.5-2.8,1.7c-1.8,0.3-2.8,1.7-3.4,3.2c-0.1,0.3,0.1,0.9,0.3,1c1.7,0.8,3.5,1.4,5.4,1.4
	c0.1-0.8,0-1.5,0.2-1.9c0.8-1.2,1.8-2.3,2.8-3.4c0.3-0.4,0.8-0.7,1.3-0.9c1.5-0.7,3.1-1.3,4.6-1.9C120,213.4,121,212.8,122.2,212.3z
	 M104,115.6c0.4-0.3,0.7-0.4,0.8-0.6c1.9-2.2,3.2-4.9,4.4-7.5c0.4-0.8,0.7-1.7,0.9-2.6c0.1-0.4-0.1-1.2-0.4-1.3
	c-0.3-0.2-1.2,0-1.4,0.3c-0.9,1.2-2.1,1.4-3.5,1.4c-1.7,0-1.9,0.4-2.1,2c-0.4,2.5,0.4,4.8,0.7,7.3
	C103.3,114.8,103.7,115.1,104,115.6z M133.7,143.7c-1.5-0.3-2.9-0.3-4.1-0.8c-1.2-0.5-2.3-1.3-3.2-2.3c-1.4-1.7-2-1.1-3.4-0.4
	c-1.6,0.8-1.6,2.8-0.2,3.9c0.9,0.7,1.9,1.5,2.5,2.4c0.6,0.9,1.1,0.9,2,0.6c1.1-0.4,2.3-0.8,3.4-0.9
	C132.4,146.1,133,145.1,133.7,143.7z M220.2,138.5c1.3-0.9,2.8-1.6,3.9-3c0.9-1.2,2-2.3,3.5-2.9c1.7-0.7,2.8-2.1,3.3-3.9
	c0.3-1.1-0.3-2-1.6-2.6c-1-0.5-1.4,0.2-1.9,0.9c-1.6,2-3.3,3.8-4.7,5.9c-1.1,1.6-1.8,3.4-2.6,5.1C219.9,138,220,138.1,220.2,138.5z
	 M171.8,242.8c-0.8,0.4-1.4,0.8-2.1,1c-2.8,1-5.7,0.3-8.5,0.1c-0.9-0.1-1.6-1.1-2.5-1.6c-1.4-0.8-1.7-0.7-2.8,0.3
	c-0.4,0.4-0.9,0.8-1.5,0.9c-1.4,0.2-2.3,1.1-3.8,1.9c1.2,0.4,1.9,0.9,2.7,1c1.4,0.1,2.8,0,4.2-0.1c2.5-0.2,5-0.6,7.5-0.9
	c1.7-0.2,3.4-0.4,5.2-0.7C171.2,244.6,172,244.3,171.8,242.8z M247.3,73.6c0.7-0.2,1-0.2,1.2-0.3c2-1.5,4.1-2.9,6.1-4.5
	c0.9-0.7,1.7-1.7,2.4-2.6c0.4-0.6,0.6-1.5,0.6-2.2c0-1.1-0.9-1.7-1.8-1.1c-1.5,0.9-3,1.8-4.1,3.1c-1.5,1.8-2.5,4-3.8,6.1
	C247.6,72.3,247.5,72.8,247.3,73.6z M245.6,113.7c-1.7-0.1-3.6,0.9-4.1,2.3c-0.3,0.9-0.8,1.5-1.6,2c-0.4,0.2-0.8,0.6-0.9,1
	c-0.3,0.9-2,1-1.5,2.1c0.4,0.7,1.5,1.2,2.4,1.5c2.2,0.8,3.2,0.4,3.8-1.8c0.6-2,1.2-4.1,1.7-6.1C245.7,114.3,245.6,114,245.6,113.7z
	 M104.2,129.9c0.2,0.1,0.3,0.1,0.5,0.2c0.3-0.4,0.7-0.7,1-1.1c0.8-1.3,1.5-2.7,2.2-4c0.8-1.5,0.8-1.9-0.3-3.2
	c-1.2-1.3-2.4-2.5-3.6-3.8c-0.9,3.1-0.6,6.2-0.2,9.3C103.9,128.2,104.1,129,104.2,129.9z M102.4,81c0.5-0.3,0.9-0.3,1-0.5
	c1.2-1.8,2.4-3.7,3.4-5.6c0.3-0.6,0.5-1.6-0.4-2.2c-0.7-0.5-1.4-1-2.2-1.4c-1.3-0.6-2.3-0.3-2.6,1.1c-0.2,0.9-0.1,1.8,0,2.7
	c0.1,1.4,0.4,2.7,0.5,4.1C102.2,79.9,102.3,80.3,102.4,81z M94.6,236.7c0.4,1.6,0.6,1.8,1.3,2.4c0.6,0.4,1.3,0.5,1.8-0.1
	c1-1.5,2.6-1.7,4.1-2.3c2.1-0.8,4.2-1.6,6.3-2.4c0.3-0.1,0.6-0.4,1.2-0.9c-1.9-0.1-3.2-0.1-4.4,0.6c-0.7,0.4-1.5,0.9-2.2,1.3
	c-1.1,0.6-1.7,0.5-2.7-0.4c-0.5-0.4-1-0.8-1.4-1.1C97.1,234.9,95.8,235.8,94.6,236.7z M100.1,169.4c-1.7-0.8-1.9-0.8-3.1-0.5
	c-2.1,0.5-3.3,2.1-4.8,3.5c-0.3,0.3-0.4,1-0.2,1.5c0.2,0.7,0.6,1.3,1,2.1C95.4,173.6,98.4,172.3,100.1,169.4z M73.4,153.8
	c1.1-0.4,1.9-0.7,2.7-0.9c0.8-0.3,1.7-0.5,2.8-0.8c-0.7-0.8-1.2-1.5-1.8-2.1c-0.8-1-1.7-1.8-2.5-2.8c-0.6-0.7-1.1-1.4-2.1-1
	c-0.6,0.2-0.8,1.7-0.1,2.5C73.6,150,73.7,151.6,73.4,153.8z M175.2,134.1c0.2,0,0.5,0,0.7-0.1c1.9-1.1,3.2-2.7,4.2-4.6
	c0.2-0.5,0.5-0.9,0.7-1.4c0.5-0.9,0.9-1.9,1.3-2.8c0.1-0.3,0-0.9-0.3-1c-0.2-0.2-0.8-0.1-1.1,0.1c-1.1,0.6-1.7,1.7-1.9,2.9
	c-0.2,1.3-0.8,2.2-1.9,2.9c-0.5,0.3-0.9,1-1.1,1.5C175.6,132.3,175.4,133.2,175.2,134.1z M102.3,88.9c-0.1,0.3-0.3,0.4-0.3,0.6
	c-0.1,1.7-0.1,3.4-0.2,5.2c0,0.3,0,0.7,0.1,1c0.2,0.9,1,1.3,1.8,0.8c0.7-0.5,1.4-1,2-1.6c0.2-0.2,0.4-0.8,0.3-1.1
	c-0.3-0.9-0.5-2-1.1-2.7C104.3,90.2,103.6,89.2,102.3,88.9z M236,103.7c3.2-0.3,4.1-0.8,5.7-3c0.4-0.5,0.7-1.1,0-1.5
	c-1.1-0.7-2.4-1.1-3.8-0.7c-0.4,0.1-0.8,0.7-0.9,1.1C236.6,100.9,236.3,102.3,236,103.7z M114.3,74.8c0.1,0,0.3-0.1,0.4-0.1
	c0-0.5,0.2-1,0.1-1.5c-0.3-1.7-0.6-3.4-1-5.1c-0.2-1-0.5-2.1-0.9-3.1c-0.4-1.1-1.1-1.2-2-0.6c-0.6,0.4-0.9,1-0.6,1.7
	c0.4,1.3,0.7,2.7,1.9,3.7c0.5,0.5,0.8,1.3,1,2.1C113.5,72.9,113.6,74,114.3,74.8z M62.2,161.7c0.6-1.1,1-1.8,1.3-2.6
	c0.9-2.3-0.7-4.4-3.1-4.1c-0.4,0.1-1,0.6-1,1C59.5,158,60.2,159.9,62.2,161.7z M178.4,190.9c1-0.3,1.8-0.9,2.5-0.8
	c3.1,0.2,5.3-1.5,7.4-3.3c0.2-0.1,0.2-0.4,0.6-1c-1,0.3-1.6,0.4-2.3,0.6c-2.4,0.5-4.5,2.2-7.2,2.1
	C178.2,188.5,178.1,189,178.4,190.9z M114.9,98.5c1.7-2,1-4.1,0.6-6.1c-0.1-0.8-1.1-1-1.7-0.2c-0.8,1-1.4,2.2-2.1,3.3
	C112.9,96.6,113.9,97.6,114.9,98.5z M235.6,133c0.5,0.8,0.9,1.7,1.5,2.4c0.4,0.5,1,0.9,1.6,0.9c0.3,0,0.8-0.8,1-1.3
	c0.5-1.1,0.8-2.2,1.2-3.3c0.2-0.7-0.2-1.1-0.8-1c-0.6,0.1-1.2,0.2-1.7,0.5C237.4,131.7,236.6,132.3,235.6,133z M182.8,263.3
	c0.3-1.2,0.5-2.2,0.8-3.2c0.2-0.8-0.2-1.5-0.9-1.4c-1.3,0.2-2.7,0.4-4,1c-0.9,0.4-0.9,1.3-0.1,1.7
	C180,262.2,181.4,262.7,182.8,263.3z M150.7,93.5c2.5-0.9,4.3-2.8,6.4-4.2c0.3-0.2,0.4-0.8,0.6-1.3c-0.6-0.1-0.9,0.1-1.3,0.3
	c-1.3,0.5-2.6,1.2-3.9,1.4C150.6,90.1,149.9,91.3,150.7,93.5z M195.3,110.6c1.8,0.6,2.4,0.5,3.2-0.5c0.5-0.6,0.9-1.2,1.4-1.6
	c1.3-0.9,1.6-2,1.2-3.4c-1.5-0.4-1.4-0.4-1.9,0.8c-0.1,0.4-0.5,0.8-0.7,1.1C197.5,108.1,196.5,109.3,195.3,110.6z M185.8,201.9
	c-0.8-1.5-0.8-1.6-1.8-1.5c-1.4,0-3-0.4-3.9,1.4c0.4,0.5,0.7,1.1,1.1,1.6c0.5,0.5,1.1,0.7,1.8,0.3
	C183.9,203.1,184.8,202.5,185.8,201.9z M213.8,76.5c-0.9-0.4-1.6,0.2-1.9,0.7c-0.8,1.6-2.6,2.6-2.5,5.1c1.2-0.6,2.3-1,3.2-1.5
	c0.4-0.2,0.7-0.7,0.7-1.1C213.7,78.6,213.7,77.6,213.8,76.5z M92.7,268.1c3.4-1.3,6.8-1.7,10-3.2c-0.7-1.3-1.5-1.1-2.4-0.6
	c-0.5,0.3-0.9,0.7-1.3,0.8c-1.6,0.4-3.2,0.7-4.8,1.1C93.5,266.5,92.7,266.7,92.7,268.1z M148.1,105.9c1-0.9,1.8-1.5,2.5-2.3
	c0.3-0.4,0.6-1.3,0.4-1.6c-0.3-0.4-1.1-0.8-1.6-0.8c-0.5,0-1.2,0.4-1.4,0.9C147.4,103.2,147.2,104.3,148.1,105.9z M119,123.5
	c-1.1,0.3-1.6,1.3-2,2.1c-0.2,0.5-0.5,1.3-0.2,1.6c0.3,0.4,1.1,0.4,1.6,0.5c0.9,0.1,1.4-0.4,1.4-1.3
	C119.8,125.4,119.7,124.4,119,123.5z M196.7,183.2c-2.6,0.5-3.4,1-4.2,2.4c1.5,0.1,3,0.6,4.7-0.2C197,184.7,196.8,183.9,196.7,183.2
	z M153.4,252.3c0.5,0.6,0.8,1.4,1.4,1.8c0.4,0.3,1.2,0.5,1.8,0.4c0.7-0.2,0.6-0.9,0.4-1.5c-0.3-0.7-0.4-1.6-1.4-1.8
	C154.7,251.1,153.8,251.4,153.4,252.3z M208,56.3c-0.1,1.7-2.2,2.6-1.7,4.7c1.7-0.6,2.9-1.7,2.9-2.8C209.3,57.4,209.4,56.5,208,56.3
	z M161.5,52.7c-1-0.7-1.9-0.9-2.7-0.2c-0.8,0.6-0.9,2.2-0.4,3.2C159.7,55,160.9,54.3,161.5,52.7z M128,154.1
	c-0.1,2.1,1.1,2.6,3.4,1.5C131,153.4,130.8,153.3,128,154.1z M116.9,116.8c0.7-0.9,0.6-1.8,0.2-2.5c-0.2-0.3-0.8-0.6-1.1-0.5
	c-0.3,0.1-0.7,0.7-0.6,1.1C115.5,115.6,115.8,116.5,116.9,116.8z M218.8,172.6c0.6,0.5,0.9,0.8,1.3,1c0.6,0.3,1.2,0,1.4-0.6
	c0.1-0.4,0.2-1,0-1.3c-0.4-0.6-1-0.6-1.6-0.2C219.7,171.8,219.4,172.1,218.8,172.6z M104.1,143.6c0.2,0,0.4,0.1,0.6,0.1
	c0.3-0.4,0.7-0.8,0.9-1.2c0.3-0.6-0.1-1-0.7-1.2c-0.7-0.2-1.1,0.2-1.1,0.8C103.8,142.7,104,143.1,104.1,143.6z M115.5,78.4
	c-0.4-0.4-0.6-0.6-0.9-0.9c-0.3,0.4-0.6,0.7-0.8,1.1c0,0.1,0.5,0.7,0.7,0.6C114.8,79.2,115.1,78.8,115.5,78.4z M80.9,154.1
	c-0.4,0.4-0.7,0.6-0.8,0.9c0,0.1,0.4,0.6,0.6,0.6c0.3,0,0.6-0.3,0.9-0.5C81.4,154.9,81.2,154.6,80.9,154.1z M183.3,173.7
	c1.3,0.4,1.9-0.4,2.5-1C184.9,172.6,183.9,172.4,183.3,173.7z M195.2,119.7c-0.5-0.2-0.8-0.5-1.1-0.5c-0.2,0-0.6,0.3-0.6,0.5
	c0,0.2,0.3,0.6,0.5,0.6C194.1,120.4,194.4,120.1,195.2,119.7z M241.5,89.1c-0.5-0.2-0.8-0.5-1-0.5c-0.2,0.1-0.4,0.4-0.6,0.6
	c0.2,0.2,0.5,0.5,0.7,0.5C240.9,89.7,241.1,89.4,241.5,89.1z M194.7,151.2c-0.8-0.3-1.2,0-1.6,0.8
	C193.9,152.1,194.4,152.1,194.7,151.2z M146.1,116.5c-0.2,0-0.3,0-0.5,0c0,0.4,0.1,0.7,0.1,1.1c0.1,0,0.2,0,0.3,0
	C146.1,117.3,146.1,116.9,146.1,116.5z"/>
</svg>
