<?xml version="1.0" encoding="utf-8"?>
<!-- Generator: Adobe Illustrator 26.0.1, SVG Export Plug-In . SVG Version: 6.00 Build 0)  -->
<svg version="1.1" id="Layer_1" xmlns="http://www.w3.org/2000/svg" xmlns:xlink="http://www.w3.org/1999/xlink" x="0px" y="0px"
	 viewBox="0 0 226.8 226.8" style="enable-background:new 0 0 226.8 226.8;" xml:space="preserve">
<style type="text/css">
	.st0{fill:#00005B;}
	.st1{fill:#9999FF;}
</style>
<g id="Layer_2_1_-8" transform="matrix(0.41666667,0,0,0.41666667,55,0)">
	<g id="Surfaces">
		<g id="Video_Audio_Surface">
			<g id="Outline_no_shadow-3">
				<path id="path2194" class="st0" d="M11.8,70.4h265.9c40.3,0,72.9,32.6,72.9,72.9V399c0,40.3-32.6,72.9-72.9,72.9H11.8
					c-40.3,0-72.9-32.6-72.9-72.9V143.3C-61.1,103-28.5,70.4,11.8,70.4z"/>
			</g>
		</g>
	</g>
	<g id="Outlined_Mnemonics_Logos">
		<g id="Ae">
			<path id="path2199" class="st1" d="M104.3,310.6H40.5l-13,40.5c-0.3,1.5-1.7,2.6-3.3,2.4H-8.1c-1.9,0-2.4-1-1.9-3.1l55.2-158.3
				c0.5-1.7,1-3.3,1.7-5.3c0.7-3.6,1-7.4,1-11.2c-0.2-0.9,0.5-1.7,1.4-1.9c0.2,0,0.3,0,0.5,0h43.9c1.2,0,2.1,0.5,2.2,1.4l62.6,175.8
				c0.5,1.9,0,2.7-1.7,2.7h-35.9c-1.2,0.2-2.4-0.7-2.7-1.9L104.3,310.6z M50.4,276.5H94c-1-3.6-2.4-7.9-3.9-12.4
				c-1.5-4.6-3.1-9.6-4.6-14.8c-1.7-5.3-3.3-10.5-5-15.8c-1.7-5.3-3.3-10.3-4.6-15.3c-1.4-4.8-2.6-9.3-3.8-13.4h-0.3
				c-1.5,7.4-3.4,14.8-5.8,22.1c-2.6,8.2-5.1,16.8-7.9,25.4C55.8,261.2,53,269.3,50.4,276.5L50.4,276.5z"/>
			<path id="path2201" class="st1" d="M260.4,294.8H206c0.7,5.3,2.4,10.6,5.3,15.3c3.1,4.6,7.4,8.2,12.5,10.3
				c6.9,2.9,14.4,4.5,22,4.3c6-0.2,12-0.7,17.8-1.9c5.3-0.7,10.5-2.1,15.3-3.9c0.9-0.7,1.4-0.3,1.4,1.4v26.2c0,0.7-0.2,1.4-0.3,2.1
				c-0.3,0.5-0.7,0.9-1.2,1.2c-5.5,2.4-11.1,4.1-17.2,5.1c-8.1,1.5-16.1,2.2-24.4,2.1c-13,0-24-2.1-32.9-6
				c-8.4-3.6-15.8-9.3-21.6-16.3c-5.5-6.7-9.4-14.2-11.8-22.5c-2.4-8.1-3.6-16.5-3.6-25c0-9.3,1.4-18.4,4.3-27.3
				c2.7-8.6,7-16.5,12.9-23.5c5.7-6.9,12.7-12.4,20.8-16.3c8.1-3.9,17.7-5.3,28.6-5.3c9.1-0.2,18.2,1.5,26.6,5.3
				c7,3.1,13.2,7.7,18,13.7c4.5,5.8,8.1,12.4,10.3,19.6c2.2,6.9,3.3,13.9,3.3,20.9c0,4.1-0.2,7.7-0.3,11c-0.3,3.3-0.5,5.7-0.7,7.2
				c-0.2,1.2-1.2,2.2-2.4,2.2c-1,0-2.9,0.2-5.7,0.3c-2.7,0.3-6,0.5-9.9,0.5C269,295.5,264.9,294.8,260.4,294.8L260.4,294.8z
				 M206,269.8h36.2c4.5,0,7.7,0,9.8-0.2c1.4-0.2,2.7-0.5,3.9-1.4v-1.7c0-2.2-0.3-4.3-1-6.3c-3.1-9.6-12.2-16.1-22.3-15.8
				c-9.4-0.5-18.4,4.5-22.8,13C207.8,261.4,206.6,265.5,206,269.8z"/>
		</g>
	</g>
</g>
</svg>
