<?xml version="1.0" encoding="utf-8"?>
<!-- Generator: Adobe Illustrator 26.0.1, SVG Export Plug-In . SVG Version: 6.00 Build 0)  -->
<svg version="1.1" id="Layer_1" xmlns="http://www.w3.org/2000/svg" xmlns:xlink="http://www.w3.org/1999/xlink" x="0px" y="0px"
	 viewBox="0 0 226.8 226.8" style="enable-background:new 0 0 226.8 226.8;" xml:space="preserve">
<style type="text/css">
	.st0{fill:#FFFFFF;}
	.st1{fill:#265787;}
	.st2{fill:#EA7600;}
</style>
<g>
	<path class="st0" d="M96.5,118.3c0.6-11.2,6.1-21,14.3-28c8.1-6.9,19-11,30.9-11c11.9,0,22.8,4.2,30.9,11c8.2,7,13.7,16.8,14.3,28
		c0.6,11.5-4,22.1-12.1,30c-8.3,8-20,13.1-33.1,13.1c-13.1,0-24.9-5-33.1-13.1C100.4,140.4,95.8,129.7,96.5,118.3z"/>
	<path class="st1" d="M118.5,119.3c0.3-5.7,3.1-10.8,7.4-14.4c4.2-3.5,9.7-5.7,15.8-5.7c6.1,0,11.7,2.1,15.8,5.7
		c4.2,3.6,7,8.6,7.4,14.4c0.3,5.9-2,11.4-6.2,15.4c-4.2,4.1-10.3,6.7-17,6.7c-6.7,0-12.8-2.6-17-6.7
		C120.5,130.6,118.2,125.1,118.5,119.3z"/>
	<path class="st2" d="M81.7,131c0,2.2,0.8,6.6,1.8,10c2.3,7.2,6.1,13.9,11.4,19.8c5.5,6.1,12.2,10.9,20,14.4
		c8.2,3.6,17,5.5,26.3,5.5c9.2,0,18.1-1.9,26.2-5.5c7.8-3.5,14.5-8.4,20-14.4c5.3-5.9,9.2-12.6,11.4-19.8c1.1-3.6,1.9-7.4,2.1-11.1
		c0.3-3.7,0.2-7.3-0.4-11c-1-7.1-3.5-13.8-7.3-19.9c-3.5-5.6-8-10.5-13.3-14.7l0,0l-53.8-41.3c0,0-0.1-0.1-0.1-0.1
		c-3.5-2.7-9.5-2.7-13.3,0c-3.9,2.7-4.4,7.3-0.9,10.2l0,0l22.4,18.2l-68.4,0.1h-0.1c-5.7,0-11.1,3.7-12.2,8.4
		c-1.1,4.8,2.7,8.7,8.6,8.8l0,0l34.7-0.1l-61.9,47.5c-0.1,0.1-0.2,0.1-0.2,0.2c-5.8,4.5-7.7,11.9-4,16.6c3.7,4.8,11.7,4.8,17.6,0
		l33.8-27.6C82.1,125.1,81.6,128.8,81.7,131z M168.4,143.5c-7,7.1-16.7,11.1-27.2,11.1c-10.6,0-20.3-4-27.2-11
		c-3.4-3.4-5.9-7.4-7.4-11.6c-1.5-4.2-2.1-8.6-1.7-13c0.4-4.3,1.7-8.5,3.7-12.2c2-3.7,4.8-7,8.3-9.8c6.8-5.5,15.4-8.5,24.4-8.5
		c9,0,17.6,2.9,24.4,8.4c3.4,2.8,6.2,6.1,8.3,9.8c2.1,3.7,3.4,7.9,3.7,12.2c0.4,4.4-0.2,8.8-1.7,13
		C174.3,136.1,171.8,140.1,168.4,143.5z"/>
</g>
</svg>
