<?xml version="1.0" encoding="utf-8"?>
<!-- Generator: Adobe Illustrator 26.0.1, SVG Export Plug-In . SVG Version: 6.00 Build 0)  -->
<svg version="1.1" id="Layer_1" xmlns="http://www.w3.org/2000/svg" xmlns:xlink="http://www.w3.org/1999/xlink" x="0px" y="0px"
	 viewBox="0 0 226.8 226.8" style="enable-background:new 0 0 226.8 226.8;" xml:space="preserve">
<style type="text/css">
	.st0{fill:#330000;}
	.st1{fill:#FF9A00;}
</style>
<g id="Layer_2_1_">
	<g id="Surfaces">
		<g id="Drawing_Surface">
			<g id="Outline_no_shadow">
				<path class="st0" d="M59.2,29.6h111.2c16.9,0,30.5,13.6,30.5,30.5v106.9c0,16.9-13.6,30.5-30.5,30.5H59.2
					c-16.9,0-30.5-13.6-30.5-30.5V60C28.8,43.2,42.4,29.6,59.2,29.6z"/>
			</g>
		</g>
	</g>
	<g id="Outlined_Mnemonics_Logos">
		<g id="Ai">
			<path class="st1" d="M112.2,130.2H85.5L80,147.1c-0.1,0.6-0.7,1.1-1.4,1H65.2c-0.8,0-1-0.4-0.8-1.3l23.1-66.5
				c0.2-0.7,0.4-1.5,0.7-2.4c0.3-1.5,0.4-3.1,0.4-4.7c-0.1-0.4,0.2-0.7,0.6-0.8c0.1,0,0.1,0,0.2,0h18.4c0.6,0,0.9,0.2,0.9,0.6
				l26.2,73.9c0.2,0.8,0,1.1-0.7,1.1h-15c-0.5,0.1-1-0.3-1.1-0.8L112.2,130.2z M89.7,115.7h18.2c-0.4-1.5-1-3.3-1.6-5.2
				c-0.6-1.9-1.3-4-1.9-6.2c-0.7-2.2-1.4-4.4-2.1-6.6c-0.7-2.2-1.4-4.3-1.9-6.4c-0.6-2-1.1-3.9-1.6-5.6h-0.1
				c-0.6,3.1-1.4,6.2-2.4,9.3c-1.1,3.4-2.2,7-3.3,10.6C91.8,109.3,90.7,112.7,89.7,115.7L89.7,115.7z"/>
			<path class="st1" d="M150.5,84.8c-2.4,0.1-4.7-0.9-6.4-2.5c-1.6-1.8-2.5-4.2-2.4-6.6c-0.1-2.4,0.9-4.7,2.6-6.4
				c1.7-1.6,4-2.5,6.4-2.5c2.8,0,4.9,0.9,6.5,2.5c1.6,1.7,2.4,4,2.4,6.4c0.1,2.4-0.8,4.8-2.5,6.6C155.4,84,153,84.9,150.5,84.8z
				 M142.5,147V91.8c0-0.7,0.3-1,0.9-1h14.2c0.6,0,0.9,0.4,0.9,1V147c0,0.8-0.3,1.1-0.9,1.1h-14.1
				C142.9,148.2,142.5,147.7,142.5,147z"/>
		</g>
	</g>
</g>
</svg>
