<?xml version="1.0" encoding="utf-8"?>
<!-- Generator: Adobe Illustrator 26.0.1, SVG Export Plug-In . SVG Version: 6.00 Build 0)  -->
<svg version="1.1"
	 id="svg23" xmlns:inkscape="http://www.inkscape.org/namespaces/inkscape" xmlns:sodipodi="http://sodipodi.sourceforge.net/DTD/sodipodi-0.dtd" xmlns:svg="http://www.w3.org/2000/svg"
	 xmlns="http://www.w3.org/2000/svg" xmlns:xlink="http://www.w3.org/1999/xlink" x="0px" y="0px" viewBox="0 0 308.8 304.9"
	 style="enable-background:new 0 0 308.8 304.9;" xml:space="preserve">
<style type="text/css">
	.st0{fill:#0C7C59;}
</style>
<path class="st0" d="M126.4,130.7c1.9-0.5,2.3-1.9,2.8-3c1.1-2.8,2.1-5.6,3.1-8.4c0.2-0.4,0.2-0.9,0.2-1.3c-0.2-3,0.7-5.9,1.5-8.8
	c0.6-1.9,0.9-3.9,1.3-5.8c0.9-3.9,1.7-7.9,2.5-11.8c0.6-2.6,1-5.3,1.7-7.8c0.4-1.8,1.2-3.5,1.7-5.2c0.1-0.4,0.2-0.9,0.3-1.3
	c0.2-2,0.3-4.1,0.6-6.1c0.5-3.5,1.2-6.9,1.8-10.4c0.6-3.1,1.4-6.3,2-9.4c0.1-0.3,0.2-0.6,0.1-0.9c-0.8-4.1,0.4-7.9,1.2-11.8
	c1.2-5.3,2.5-10.6,3.9-15.8c0.2-0.6,0.5-1.4,1-1.7c2-1.4,2.7-3.5,3.3-5.6c0.5-1.7,1.4-2.8,2.9-3.6c0.3-0.2,0.7-0.4,1-0.5
	c1.1-0.4,1.7-2,3.2-1.4c2.4,1,5,1.5,6.5,4c0.8,1.4,1.8,2.6,2.6,4c1.7,3.4,2.7,6.9,2.6,10.8c0,0.8-0.1,1.6,0.2,2.3
	c0.9,2,0.6,4,0.3,6.1c0,0.2-0.1,0.3-0.1,0.4c0.6,3.1,0.4,6.2,0.4,9.3c-0.1,4,0.8,8,0.3,12c-0.3,2-0.1,4.1-0.2,6.2
	c-0.1,1.6-0.7,3.2-0.4,4.8c0.7,4.2-0.7,8.4-0.2,12.6c0.1,0.6,0,1.3-0.3,1.8c-1.1,2.7-1.1,5.5-1.4,8.3c-0.2,2.7-0.5,5.3-1.9,7.7
	c-0.4,0.7-0.8,1.7-0.6,2.4c0.6,1.9-0.2,3.4-0.6,5.1c-0.3,1.2-0.3,2.4-0.4,3.6c-0.1,0.6,0.1,1.3-0.1,1.8c-1.1,2.4-0.1,4.6,0.2,6.9
	c0,0.2,0.3,0.3,0.7,0.6c1.6-2.1,3.1-4.2,4.6-6.3c2-2.9,4-5.8,5.8-8.8c0.9-1.5,1.3-3.3,2-4.9c0.6-1.3,1.5-2.5,2.2-3.8
	c0.4-0.9,0.8-1.8,1.1-2.7c0.4-1.4,0.7-2.8,1.2-4.1c1.4-3.7,2.9-7.4,4.4-11.1c0.4-1,1-2,1.6-3c0.2-0.5,0.6-0.9,0.6-1.4
	c0.4-2.8,1.6-5.2,3.2-7.5c1.2-1.8,1.8-3.7,1.9-5.9c0.2-3.1,1.5-6.2,2.4-9.3c1.5-5.1,3-10.3,4.4-15.4c0.1-0.4,0-0.9,0-1.4
	c0-0.4-0.1-1,0.1-1.1c1.6-1,1-2.7,1.4-4.1c0.4-1.8,1-3.5,1.7-5.2c0.9-2.3,2.3-4.4,2.8-6.7c0.4-1.9,1.2-3.2,2.4-4.5
	c0.4-0.4,0.3-1.3,0.4-1.9c0.1-1.8,0.6-2.3,2.4-2.7c1.5-0.3,2.9-0.6,3.8-1.9c0.6-0.9,1.5-1,2.4-0.8c2.6,0.6,5.1,1.3,7,3.5
	c1.3,1.6,3.1,2.9,4,4.9c0.2,0.5,0.5,0.9,0.7,1.4c0.6,1.6,0.8,1.8,2.4,1.7c1,0,2-0.2,3-0.2c1.5,0,2.7,1,2.9,2.4
	c0.1,0.6-0.1,1.4-0.5,1.8c-1.4,1.6-2.9,3.1-4.3,4.7c-0.1,0.1-0.1,0.1-0.1,0.2c-3.2,1.6-2.3,4.6-2.4,7.2c-0.1,2.1,0.4,4.3-0.3,6.1
	c-0.5,1.5-0.7,2.9-0.8,4.4c-0.1,1.2,0.1,2.4,0.2,3.6c0,0.7,0.1,1.4-0.2,2c-1,2.5-0.7,5.1-0.9,7.6c-0.2,3.2-0.9,6.3-1.3,9.5
	c-0.2,1.7-0.3,3.3-0.6,5c-0.5,2.1-0.1,4.4-1.9,6.2c-0.2,0.2-0.4,0.7-0.4,1c0.6,3.4,0.1,6.9,0.2,10.3c0,2-0.5,4.1-0.8,6.1
	c-0.3,1.5-0.4,3,0.2,4.5c0.7,1.7,0.1,3.2-1,4.5c-0.3,0.4-0.5,0.9-0.6,1.4c-0.8,3.7-1.5,7.5-2.2,11.2c-0.2,1-0.2,2-0.2,3
	c0,0.8,0.7,1.2,1.4,0.7c0.4-0.2,0.7-0.6,1-0.9c1-1.8,1.9-3.6,3-5.4c1.6-2.5,1.8-5.5,2.9-8.2c0.2-0.5,0.3-1.1,0.2-1.6
	c-0.2-1.4,0-2.6,1.3-3.4c0.3-0.2,0.4-0.8,0.5-1.2c0.7-4.2,1.5-8.4,3.4-12.3c0.3-0.6,0.6-1.3,0.6-2c-0.1-2.5,1-4.7,1.8-7
	c0.9-2.7,2.1-5.2,3-7.9c0.7-1.9,1.5-3.8,2-5.8c0.8-3.2,2.6-5.9,4.3-8.6c0.6-1,1.3-1.9,2-2.8c0.6-0.7,1.3-1.4,2.2-2.3
	c-0.1-1.5,0.8-2.9,2-4.1c2-1.9,4.3-3.4,6.3-5.3c2-2,5-2.2,7.1-3.9c0.5-0.4,1.4-0.6,1.9-0.5c2.3,0.8,4.6,1.6,5.8,4
	c0.2,0.3,0.3,0.7,0.5,1c2.7,4.3,3.5,9,3.6,13.9c0,0.7,0.2,1.3,0.3,2c0.3,2.3,0.8,4.8-1.8,6c1.6,3.5,1.2,6.9-0.1,10.2
	c-0.3,0.8-0.6,1.5-0.5,2.4c0.3,2.5,0.3,4.9-1.5,6.9c-0.3,0.3-0.3,0.8-0.3,1.2c0,3.2-1,6.1-2.6,8.8c-0.1,0.1-0.2,0.2-0.3,0.4
	c-0.7,3.3-2.9,6-3.4,9.4c-0.2,1.6-0.9,3.3-1.8,4.6c-1.1,1.7-1.1,3.6-1.7,5.4c-0.6,1.9-0.9,3.8-1.5,5.7c-0.8,2.4-1.9,4.8-2.8,7.2
	c-0.1,0.4-0.3,0.7-0.3,1.1c-0.3,4.8-2.4,8.9-4.4,13.2c-0.2,0.3-0.5,0.7-0.5,1c-0.1,3.4-2.1,6.2-2.8,9.4c-0.1,0.4-0.4,0.9-0.7,1.1
	c-0.8,0.6-1.1,1.4-1.3,2.3c-0.2,0.7-0.6,1.4-0.9,2.1c-1.3,2.6-2.7,5-3.6,7.8c-1,2.9-2.2,5.9-3.9,8.4c-2.2,3.1-4.1,6.4-5.7,9.8
	c-1.1,2.3-2.1,4.7-3.8,6.5c-2.4,2.6-3.4,5.9-5.2,8.8c-2.2,3.5-3.5,7.4-5.4,11c-0.8,1.6-2,3.1-3,4.6c-1.6,2.5-3.5,4.8-4.4,7.7
	c-0.5,1.4-0.9,2.8-1.6,4c-0.8,1.5-1.6,2.8-3,3.9c-0.9,0.7-1.4,2.1-1.9,3.3c-1.1,2.5-2,5.1-3,7.7c-0.6,1.6-1,3.2-1.5,4.8
	c-0.2,0.7-0.5,1.4-0.8,2.1c-1.1,3.1-2.4,6.1-3.4,9.2c-1.6,4.9-3.2,9.9-4.3,14.9c-0.5,2.1-1.8,4.1-1.2,6.4c0.1,0.3-0.1,0.6-0.2,0.9
	c-1.4,4-2.1,8.2-2.7,12.5c-0.1,0.8-0.4,1.6-0.5,2.5c-0.1,1.1-0.1,2.3,0,3.4c0.3,2.1-1.1,3.8-3.2,3.8c-0.5,0-0.9-0.4-1.3-0.7
	c-1-0.8-2-1.6-3.1-2.5c-0.1-0.7-0.2-1.6-0.5-2.5c-0.4-1.2-0.3-2.2,0-3.5c0.4-1.5,0-3.3-0.4-4.9c-0.2-0.9-2.9-1.8-3.8-1.2
	c-2.3,1.5-4.8,2.2-7.6,1.8c-1.2-0.1-2.5,0.6-3.7,1.1c-1,0.4-2,0.7-3.1,0.5c-1.7-0.3-3.3-0.3-4.8,0.8c-0.4,0.3-1.2,0.6-1.7,0.5
	c-2.6-0.5-5,0.2-7.4,1.1c-2,0.7-3.9,0.3-5.8,0.2c-2.3,0-4.2,0.8-6.1,1.5c-2.5,1-4.9,2.2-7.3,3.3c-1,0.5-2,0.8-3.1,0.4
	c-0.4-0.1-0.9-0.2-1.3-0.1c-1.3,0.4-2.3,0.1-3.5-0.5c-0.9-0.5-2.2-0.3-3.5-0.5c-0.6-1.2-1.2-2.6-1.9-3.9c-0.7-1.2-0.6-2,0.4-3
	c1.3-1.3,0.8-3.1-0.9-3.7c-0.5-0.2-1.4,0-1.9,0.3c-1,0.6-1.9,0.8-3,0.5c-0.7-0.2-1.5,0-2.3,0c-1.4,0.1-2.7,0.1-4-0.7
	c-0.7-0.5-1.4-0.5-2,0.3c-2.2,2.8-5.4,3.9-8.6,5c-3.2,1.2-6.5,2.1-9.8,3c-0.8,0.2-1.6,0.4-2.5,0.4c-2.5,0.2-4.8,0.7-6.9,2.3
	c-0.7,0.5-1.3,0.6-2.1,0c-1-0.9-2.3-1.5-3.2-2.5c-0.6-0.6-1-1.6-1-2.4c0.1-2.7,0.5-5.2,1.6-7.8c1.6-3.9,2.8-7.9,1.7-12.4
	c-0.8-3.3-1.2-7.1,1.1-10.4c0.7-1-0.2-4.2-1.1-5.1c-2.2-2.1-2.7-4.1-1.2-6.8c1.1-2,2.7-3.8,4.1-5.7c0.9-1.2,1.9-2.4,2.8-3.7
	c0.6-0.8,0.3-1.7-0.4-2.2c-0.8-0.6-1.7-1-2.5-1.6c-1.1-0.7-2.5-1.2-3.1-2.2c-1.4-2.3-1.3-4.8,0-7.2c0.8-1.4,1.8-2.6,2.8-3.9
	c0.5-0.6,1.2-1.3,0.5-2c-0.5-0.5-1.3-0.5-2-0.7c-0.2,0-0.5,0.1-0.6,0.2c-2,1.4-3.8,0.7-5.4-0.7c-0.4-0.4-0.8-0.7-1.4-1.1
	c-0.8,1.1-0.3,2.1-0.3,3.1c0,5.1-0.1,10.2,0.2,15.3c0.2,3.7,0.3,7.3,0,11c-0.3,3.9-1,7.7-2.8,11.2c-0.4,0.8-0.4,1.9-0.6,2.8
	c-0.1,0.4-0.1,0.9-0.2,1.3c-0.9,2.3-0.7,4.7-0.6,7c0,0.2,0,0.5,0.1,0.7c1.6,1.4,0.6,2.9,0.1,4.4c-0.8,2.3-1.7,4.6-2.5,6.9
	c-0.5,1.4-1,2.9-1.1,4.4c-0.2,2.6-1.4,4.8-1.9,7.2c-0.2,1-0.8,2.1-2,2.2s-2-0.6-2.7-1.5s-1.5-1.7-2.3-2.5c-1.7-1.7-2.4-3.7-1.5-6.1
	c0.6-1.6,1.2-3.2,1.8-4.7c0.1-0.3,0.4-0.6,0.4-0.8c-0.6-2.3,0.9-4.5,0.1-6.8c-0.2-0.6-0.3-1.5,0-2c1.3-2.3,1.1-4.9,1.6-7.4
	c0.2-1,0.6-1.9,0.9-2.8c0.2-0.7,0.6-1.4,0.8-2.1c0.9-3.3,1.7-6.7,2.5-10c0.1-0.6,0.2-1.2,0.2-1.8c-0.1-2.7-0.2-5.3,0.7-8
	c0.3-0.9,0.1-2,0-3c-0.5-2.6-0.7-5.1,0.1-7.7c0.4-1.2,0.2-2.6,0.1-3.9c-0.1-2.1-0.1-4.1-0.3-6.1c-0.1-1.4-0.3-2.9-0.7-4.3
	c-1.7-4.8-2.8-9.7-3.5-14.7c-0.1-0.9-0.5-1.7-1-2.5c-4.2-6.8-8.4-13.5-11.3-21c-1.4-3.7-2.9-7.4-4.5-11c-1.1-2.5-2.4-4.9-3.6-7.4
	c-1.1-2.3-2.5-4.5-3.9-6.7c-1.8-2.8-2.8-6.1-4.1-9.2c-1.9-4.7-1.8-9.5-1.4-14.4c0.2-2.2,0.8-4.4,0.2-6.6c-0.3-1.3,0.3-2.1,1.7-2.1
	c2.1-0.1,4.1-0.6,6-1.3c0.8-0.3,1.8-0.1,2.7,0.2c2.3,0.7,4.6,1.6,6.9,2.5c0.8,0.3,1.6,0.9,2.4,1.3c5.2,3,10.7,5.6,15.1,9.9
	c1.8,1.8,3.3,3.7,4.5,6c1.1,2,2.9,3.5,4.4,5.3c0.6,0.8,1.2,1.5,1.9,2.3c1.9,2.1,3.9,4.3,5.9,6.4c0.6,0.7,1.3,1.3,1.9,2
	c1.4,1.5,2.1,1.5,3.7,0.4c1.5-1.1,2.5-2.4,2.7-4.3c0.3-2.3,0.5-4.7,0.7-7.1c0.3-4-0.7-7.9,0.3-11.9c0.2-0.7-0.2-1.5-0.2-2.2
	c-0.2-5.3-0.8-10.5-0.7-15.8c0.1-4.4,0.3-8.8-0.8-13.2c-0.4-1.6-0.1-3.3-0.2-5c0-0.5,0.1-1.2-0.2-1.6c-1.3-1.8-0.8-4-1.1-6
	c-0.1-0.7,0.1-1.6,0.5-2.2c0.8-1.2,0.6-2.4,0.3-3.7c-0.9-3.6-1.6-7.1-0.3-10.8c0.2-0.5,0.1-1,0.1-1.6c0-0.9,0-1.8,0-2.7
	c0-0.5,0.2-1,0-1.4c-1.4-2.7-0.8-5.5-0.8-8.3c0-2.3,0.2-4.6,0.3-6.9c0.2-5.6,1-11.2,3.5-16.3c0.9-2,2.5-3.6,4-5.2
	c0.3-0.4,1.3-0.2,1.9-0.3c0.7-0.2,1.5-0.2,2-0.7c0.8-0.8,1.6-1,2.7-0.7c0.7,0.2,1.6,0.1,2.2,0.4c0.9,0.4,2,0.9,2.6,1.7
	c1,1.1,1.7,2.5,3.2,3.3c0.4,0.2,0.6,0.7,0.8,1.1c0.9,2.3,2.7,4.2,3.1,6.8c0.1,0.7,0.8,1.3,1.2,1.9c1.1,1.9,1.9,4,2.3,6.2
	c0.4,2.6,2,4.6,3,6.9c0.9,2,1.4,4,1.6,6.2c0.1,1.2,0.5,2.4,0.7,3.6c0.3,1.9,0.8,3.8,0.7,5.7c-0.1,3.6,0,7.2,0.5,10.7
	c0.3,2.2,0.2,4.3,0.1,6.5c-0.3,4.1-0.4,8.2,0.4,12.3c0.2,1.1,0.1,2.3,0.2,3.4c0.5,4.2,0.9,8.5,1.7,12.7c0.5,2.2,1.3,4.4,1.4,6.7
	c0,0.4,0.1,0.9,0.4,1.3C125.4,125.5,126.8,127.7,126.4,130.7z M119.6,236c-0.3-1.6-1-2.6-2.1-2.7c-0.8-0.1-1.6,0-1.8,1.2
	C117.1,235,118.4,235.5,119.6,236c0,0.8,0.4,1.2,1.2,1.3c0.9,0,1.4,0.4,1.7,1.3c0.7,2.1,1.5,4.2,2.4,6.6c0.7-0.1,1.6-0.2,2.5-0.5
	c2.4-0.8,4.8-1.6,7.1-2.5c1.3-0.5,2.7-0.8,3.8-1.5c3.1-1.8,6.1-3.8,9.1-5.7c0.2-0.1,0.2-0.5,0.3-0.6c-1.4-0.5-2.7-0.9-4-1.3
	c-0.3-0.1-0.9-0.3-1.1-0.1c-1.3,1.2-2.8,1.3-4.4,1.1c-0.2,0-0.4,0.1-0.6,0.3c-2,1.5-4.2,2.3-6.8,1.7c-3.2-0.7-6.5,0.4-9.8-0.4
	C120.7,235.6,120.2,235.9,119.6,236z M150.8,274.1c0-0.2,0.1-0.4,0.1-0.7c-2.4-1-4-3.3-7-3.3c-1.9,0-3.8-0.3-5.7-0.4
	c-0.5,0-1.2,0-1.5-0.3c-1.4-1.1-2.7-0.8-4.1-0.3c-0.6,0.2-1.3,0.4-2,0.5c-2.8,0.6-5.7,1.2-8.5,2c-1.3,0.3-2.2,0.1-3.2-0.6
	s-2-1.3-3.1-2.1c-1.1-2-0.4-3.5,1.5-4.7c1.2-0.7,2.4-1.3,3.6-2c1.1-0.7,2.1-1.6,3.1-2.5c1.5-1.4,3.1-2.6,5.2-3.1v-0.3
	c-1.6-0.2-3.1-0.4-4.6-0.5c-1.1-0.1-2.1,0.1-3.2,0.1c-0.4,0-1,0.2-1.3,0c-1.2-0.5-2.1-0.1-2.9,0.6c-0.7,0.6-1.4,0.8-2.3,0.4
	c-1-0.5-2-0.5-3.1,0.4c0.3,0.9,0.7,1.8,0.9,2.8c0.6,3,0.8,5.9-1.7,8.3c-1.8,1.8-3.3,3.9-5.9,5.2c0.7,0.6,1,1.1,1.6,1.3
	c1.5,0.5,2,1.7,2.4,3.1c0.4,1.3,0.9,2.6,1.4,4c2.6-0.9,5-1.1,7.5-1.2c2.6-0.1,5.4-0.4,8-1.4c1.7-0.7,3.6-0.8,5.4-0.6
	c0.5,0.1,1.1,0,1.6-0.1c0.9-0.2,1.6,0,2.3,0.6c2.7,2.4,5.6,1.2,8.4,0.4c0.3-0.1,0.6-0.3,0.7-0.6c0.6-1.3,1.8-1.8,2.9-2.6
	C148.3,275.8,149.6,274.9,150.8,274.1z M135.4,216.7c1.7-0.7,3.5-1.3,5.1-2.3c1.3-0.8,2.3-2.2,3.1-3.5c0.8-1.4,1.7-2.5,3-3.3
	c2.9-1.8,5.6-3.7,8.6-5.3c2.3-1.3,4.4-3.1,7.1-3.5c0.3-0.1,0.6-0.4,0.9-0.6c1.4-1.1,2.7-2.2,4.2-3.2c2.7-1.8,5.6-3.4,8.2-5.4
	c1.3-1,2.6-1.5,4.1-1.9c1.8-0.5,3.5-1.1,4.2-2.2c0.2-2.1,0.4-3.5,0.6-5.1c0.7,0.1,1,0.1,1.4,0.1s0.8-0.1,1.3-0.2
	c-1.2-2.1-1.7-2.5-3.6-2c-1,0.2-1.9,0.7-2.8,1c-0.8,0.3-1.6,0.7-2.4,0.7c-1.7,0-3.5-0.1-5.3-0.3c-1.2-0.1-2.2,0-3.2,0.8
	s-2.3,1.3-3.5,1.8c-1.8,0.7-3.5,0.3-5.6-0.9c0.3,1,0.3,1.9,0.7,2.1c1.5,0.8,3.1,1.4,5.1,2.2c0.2,0.8,0.6,2.1,0.8,3.3
	c0.3,2.3-0.8,3.7-3,4.3c-1.4,0.5-2.7,0.9-4.2,0.5c-0.4-0.1-1,0.2-1.4,0.5c-1.5,0.8-3,1.6-4.8,1.4c-1.2-0.2-2,0.2-2.9,1
	c-0.4,0.4-1.5,0.7-1.7,0.5c-1.1-1-2.1-0.9-3.3-0.1c-0.4,0.2-1,0.1-1.5,0.1c-2.2-0.3-2.5-0.1-2.4,2c0,1.2-0.3,2-1.5,2.4
	c-0.8,0.3-1.5,0.9-2.3,1.4c-0.9,0.6-1.8,1.6-2.8,1.8c-1.7,0.3-2.8,1.2-3.8,2.3c-1.2,1.4-2.6,2.5-4.3,3.3c-0.5,0.2-0.7,0.8-1.5,1.6
	c2,0.4,3.5,0.6,5,0.9c0.5,0.1,1.2,0,1.5,0.3C133.4,214.1,134.2,215.3,135.4,216.7z M186.9,164c-1.2,1.6-2.7,1.8-4.6,1.2
	c-1.8-0.5-4,0.7-4.8,2.7c-0.5,1.1-1.2,1.9-2.1,2.6c-0.5,0.3-1.1,0.6-1.4,0.8c1.2,2.9,2.2,3.3,4.5,2.4c1.3-0.5,2.6-0.9,3.9-1.2
	c2.3-0.5,4.6-0.8,7-1.1c2.3-0.4,4.5-0.7,6.8-1c1.2-0.2,2.4-0.4,3.6-0.6c1.3-0.3,2.5-0.7,3.8-1c0.8-0.2,1.8,0,2.5-0.4
	c1.9-1.1,3.8-1.9,6.1-2.2c3.5-0.5,6.9-1.3,10.3-1.9c0.6-0.1,1.4,0.1,1.9,0.5c1.8,1.4,3.7,1,5.4,0.2c2-1,3.8-2.3,5.4-3.7
	c3.4-3,5.6-6.9,7-11.3c-1.1-1.3-2.7-1.3-4.1-1.7c-0.3-0.1-0.9,0.3-1.1,0.6c-0.4,1.1-1.3,1.3-2.3,1.7c-1.9,0.9-4,1.7-5.6,3.1
	c-2.2,1.9-4.9,2.9-7.5,3.7c-1.5,0.5-2.9,1.1-3.8,2.4c-1.3,1.7-2.9,2.3-4.9,2.4c-0.8,0-1.6,0.3-2.4,0.6c-1.4,0.5-2.8,1.2-4.2,1.8
	c-0.7,0.3-1.5,0.7-2.2,1.2c-1.4,1.1-3,1.4-4.7,1c-1.9-0.5-1.9-0.5-3.1,1.1c-0.3,0.4-1.1,1.1-1.4,0.9c-2-0.7-4.3-0.8-5.5-3
	C188.8,164.7,188.1,164.1,186.9,164z M168.3,238.4c1.6,0.6,3,0,4.4-0.3c2.2-0.5,4.4-1.1,6.8-1.1c1.9,0,3.9-0.5,5.8-1.1
	c0.7-0.2,1.5-0.8,1.9-1.5c1.3-1.9,2.6-3.8,3.8-5.7c1.4-2.3,1.7-2.4,4.2-1.4c0.4,1.9,0.4,1.9-0.9,3c-1.6,1.4-1.8,2.2-0.9,4.6
	c1.5-0.1,2.9,0,3.8,1.7c0.4,0.8,1.7,0.2,2-0.9c0.7-2.2,1.2-4.4,2.3-6.4c0.8-1.4,1.6-2.9,2.5-4.7c0,0-0.1-0.6-0.3-1.2
	c3.6-1.9,4.6-5.3,5.7-8.7c-1.2-0.8-2-0.2-2.8,0.2c-1.9,0.7-3.7,1.7-5.9,1.8c-1.5,0.1-3,0.6-4.4,1.2c-2.9,1.3-5,3.7-7.4,5.7
	c-0.7,0.6-1.7,1-2.6,1.3c-2.5,0.7-5.4,0.3-7,3.1c-0.2,0.4-0.9,0.5-1.4,0.6c-2.6,0.9-5.2,1.7-7.8,2.7c-0.5,0.2-1.2,0.6-1.4,1
	C168.3,234.2,167.3,236.2,168.3,238.4z M119.9,175.7c-1.9-1-2-1.1-3.2-0.1c-2.1,1.7-4.3,3.2-6.9,3.9c-0.7,0.2-1.6,0.5-2,1.1
	c-1.1,1.6-2.8,2-4.4,2.8c-1.3,0.7-2.6,1.5-3.9,2.3c-0.9,0.6-1.6,1.5-2.5,1.9c-2.4,1-4.2,2.8-6.2,4.2c-0.8,0.5-1.2,1.2-1,2.1
	c0.3,1.1,0.4,2.5,1.7,3.1c0.4,0.2,0.9,0,1.3-0.1c0.5-0.1,1-0.4,1.5-0.6c0.7-0.3,1.3-0.3,1.9,0.4c1.6,2.1,3.6,1.7,5.6,0.7
	c2.4-1.2,4.8-2.4,7.1-3.7c3-1.6,5.9-3.3,8.8-5c3.3-1.9,6.1-4.6,9.8-5.9c0.3-0.1,0.6-0.3,0.7-0.6c1.1-1.7,2.1-3.4,3.2-5.2
	c-2.7-0.6-2.7-0.6-5.5,0.9c-1.3,0.7-2.3,1.7-2.6,3.3c-0.1,0.4-0.2,0.9-0.5,1.2c-0.9,1-3.4,1-4.5,0.2c-1-0.7-1.3-3.1-0.6-4.2
	c0.1-0.2,0.3-0.4,0.4-0.5C118.7,177.3,119.2,176.6,119.9,175.7z M68.9,215.2c1.4-2.1,2.8-4.2,4.1-6.3c0.3-0.5,0.4-1.3,0.4-2
	c0-0.4-0.5-1.1-0.8-1.2c-1.9-0.2-2.8-1.7-4.1-2.7c-1.5-1.2-1.6-2.2-0.9-3.8c0.5-1.3,0.5-2.4-0.5-3.6c-1.4-1.6-1.4-3.5-0.5-5.4
	c0.1-0.3,0.3-0.5,0.4-0.8c0.3-0.8,0.1-1.5-0.7-1.6c-1.5-0.3-2.1-1.4-3-2.4c-1.4-1.7-1.4-3.4-0.1-5.2c1-1.3,1.9-2.5,2.8-3.9
	c0.3-0.4,0.4-0.9,0.6-1.7c-0.7,0.1-1.2,0.1-1.5,0.3c-0.7,0.6-1.4,1.4-2.1,2.1c-0.5,0.4-1.2,1.1-1.6,1c-1.6-0.6-3.5-0.5-4.7-1.9
	c-0.3-0.3-0.5-0.6-0.8-0.8c-0.7-0.6-2.1-0.6-2.8,0c-0.8,0.7-0.2,1.3,0.1,2c0.8,1.7,1.7,3.3,2.1,5.1c0.3,1.3,1,2.2,1.6,3.2
	c0.8,1.3,1.7,2.5,2.6,3.7c0.7,1.1,1.6,2,2.2,3.2c1,1.7,2.1,3.5,2.6,5.3c0.4,1.7,0.7,3.5,1.2,5.3c0.8,3.1,1.2,6.3,1.8,9.4
	C67.6,213.7,67.5,214.9,68.9,215.2z M167.2,139.1c-1-0.8-1.7-1.3-2.3-1.8c-1.1-0.8-1.7-0.7-2.2,0.5c-0.5,1.5-1.7,2.2-3,2.6
	c-2,0.6-4.2,0.8-5.7,2.5c-0.2,0.2-0.6,0.2-0.8,0.3c-1.9,0.5-3.8,1.2-5.8,1.5c-1.9,0.3-3,1.3-3.7,2.9c-1.1,2.5-2.8,4.6-5.1,6
	c-0.5,0.3-1.1,0.7-1.4,1.2c-0.6,1.1-1.4,1.9-2.7,2.3c-0.4,0.1-1,0.7-1,1.1c-0.1,1.1-0.8,1.6-1.3,2.3c-0.4,0.6-0.9,1.3-1.1,2
	c-0.3,1.1,0.3,1.7,1.4,1.4c1.2-0.3,2.3-0.9,3.4-1.3c2.2-0.9,2.2-1.1,2.1-3.5c-0.3-3.8,2.7-6.6,6.6-6.2c2.3,0.2,4.5,0.5,6.1-1.9
	c0.4-0.6,1.6-1.3,2.1-1.1c2.1,0.9,3.4,0,4.8-1.3c0.4-0.4,1-0.6,1.6-0.9c0.8-0.4,1.6-0.7,2.4-1.1c-0.2-2.5,0.2-3.3,2.2-4.7
	C164.8,141.3,165.7,140.4,167.2,139.1z M213.8,134.2c-0.9,0.6-1.8,1.4-2.8,2c-1.7,1.1-3.5,2.1-5.3,3.1c-0.3,0.2-0.8,0.3-1.1,0.3
	c-2-0.3-3.4,1.1-5.2,1.4c-1.6,0.3-2.2,2.5-1.3,3.5s3.2,1,3.9-0.1c0.7-1.3,2-1.6,3.1-2.1c4.1-1.9,8.2-3.7,12.3-5.6c1-0.4,1.2-1.1,1-2
	c-0.5-1.9-0.9-3.8-1.4-5.7c-0.1-0.3-0.3-0.5-0.4-0.8c-0.4-1-0.8-2-1-3c-0.2-1.3,0-2.7-0.3-4c-0.7-2.6-0.4-5,0.5-7.4
	c0.1-0.3,0.1-0.7,0.1-1.4c-1.1,0.4-2.1,0.5-2.7,1c-1.3,1.1-2.5,2.4-3.7,3.6c-1,1.1-0.5,2.4,0.9,2.7c0.6,0.1,1.2,0.2,1.7,0.3
	c0.3,0.9,0.5,1.6,0.7,2.3c0.5,1.9-0.3,3.2-2.2,3.6c-0.7,0.1-1.3,0.4-1.9,0.6c-2.1,0.8-4.3,1.6-6.3,2.6c-1.5,0.7-3,1.5-4.4,2.4
	c-0.7,0.5-1.4,1.2-1.3,2.1c2.4-0.5,4.6-1,6.9-1.5c0.1,0,0.3-0.1,0.4-0.2c1.4-0.8,2.7-1.6,4.1-2.4c1.7-1,3.3-0.3,4.1,1.5
	C212.6,132.1,213.2,133,213.8,134.2z M104.9,259c-1.1,0.2-2.1,0.7-3,0.5s-1.5,0-2.2,0.3s-1.4,0.8-2.1,0.9c-4.3,0.7-8.6,1.3-12.9,1.9
	c-1.1,0.1-1.7,0.6-1.7,1.7c-0.1,1.4-0.4,2.8-0.2,4.1c0.2,1.9,0.1,4,1.8,5.8c0.7-0.1,1.5-0.1,2.3-0.4c2.2-0.9,4.4-1.9,6.5-2.8
	c4.1-1.8,7.6-4.4,10.8-7.7C105.4,261.9,105.7,260.9,104.9,259z M124.2,196.7c-2.2-0.6-2.6-0.6-3.4,0.7c-0.6,1-1.5,1.3-2.6,1.7
	c-1.5,0.5-2.9,1.2-4.3,2c-3,1.7-5.9,3.5-8.8,5.3c-1.2,0.7-2.5,1.2-3.7,1.7c-0.3,0.1-0.6,0.3-0.9,0.3c-3.3-0.2-4.4,2.2-5.6,4.5
	c-0.6,1.2-1.1,2.3-2.1,3.2c-1,0.8-1.5,2-0.4,3.3c0.5-0.2,1.1-0.4,1.7-0.6c3.1-1.4,6.2-2.7,9.2-4.3c4.2-2.1,8.2-4.4,12.3-6.6
	c1.2-0.6,1.6-1.5,1.9-2.9c0.4-2.6,1.2-5.2,4-6.5C122.4,198.2,123.2,197.5,124.2,196.7z M194,242c-0.4,0.2-1.2,0.6-1.9,0.9
	c-1.2,0.6-2.4,1.5-3.7,1.7c-2.3,0.3-3.8,1.4-5.1,3.2c-0.7,1-1.6,1.5-2.9,1.6c-1.2,0.1-2.4,0.3-3.6,0.6c-0.8,0.2-1.5,0.8-1.5,1.8
	s0.7,1.5,1.6,1.7c0.5,0.1,1.1,0.1,1.6,0.3c1.8,0.5,3.7,0.8,5.1,2.3c0.8,0.9,1.8,0.7,2.9,0c0.5-0.4,1.1-0.8,1.7-0.9
	c2.4-0.6,4.4-1.4,5.2-4.2c0.6-2.2,1.6-4.3,2.4-6.4c0.1-0.2,0.2-0.4,0.2-0.7C196.2,242.7,195.7,242.1,194,242z M137.6,184.2
	c0.7,0,0.9,0,1.1-0.1c3.6-1.5,7.2-3.1,10.7-4.6c1.3-0.6,2.7-1.2,4-1.7c2.9-1.1,4.8-3.3,6.7-5.6c-0.6-1.1-1.4-0.8-2.3-0.6
	c-1.8,0.4-3.5,0.5-5.1-0.9c-1-0.9-2.4-0.8-3.2,0.3c-0.6,0.8-1.3,0.9-2.2,1c-0.8,0-1.5,0.1-2.3,0.1c-1.2,0-1.7,0.6-2.1,1.7
	c-0.8,2.2-1.6,4.4-2.6,6.4C139.6,181.6,138.6,182.7,137.6,184.2z M198.1,209.9c0.1,0.1,0.2,0.3,0.3,0.4c2.4-0.5,4.9-0.8,7.3-1.4
	c1.5-0.3,2.7-0.4,3.8,1.1c1,1.2,2.2,0.8,3.1-0.6c0.6-1,1.3-1.9,1.8-2.9c0.6-1.1,1.2-2.1,1.5-3.3c0.3-1.3,0.5-2.5,1.9-3.2
	c0.5-0.3,0.7-1.1,1.1-1.6c-1.1-1.3-2.1-1.3-3.3-0.5c-1.1,0.8-2.4,1.1-3.9,1.1c-0.9,0-1.8,0.4-2.6,0.6c-1,0.3-2,0.8-2.9,1.2
	c-0.7,0.3-1.5,0.3-2.2,0.6c-0.9,0.4-1.8,1.1-1.6,2.2c0.5,2.3-0.8,3.6-2.4,4.8C199.3,209.1,198.7,209.5,198.1,209.9z M186.7,263.4
	c-0.6,0.1-0.9,0.2-1.3,0.3c-3.2,0.8-6.3,1.6-9.5,2.5c-0.9,0.2-1.7,0.5-2.5,0.9c-1.9,1.1-3.9,2.2-5.6,3.6c-1,0.8-1.8,2-2.4,3.2
	c-0.6,1.3,0.7,2.8,2.2,2.8c0.7,0,1.6-0.1,2.2-0.4c1.8-0.9,3.4-2.1,5.2-2.8c3.5-1.4,6.5-3.5,9.4-5.9
	C185.7,266.7,187.1,265.6,186.7,263.4z M171.1,221.5c-1-0.9-2.1-0.8-3.3-0.5c-1.2,0.4-2.5,0.7-3.8,0.9c-0.9,0.1-1.6,0.2-2.1,1.1
	c-0.7,1.2-1.8,1.5-3.2,1.4c-0.6-0.1-1.5,0-1.9,0.4c-1.4,1.4-3.3,1.5-5,2c-0.7,0.2-1.4,0-2,0.2s-1.2,0.7-1.4,1.2
	c-0.1,0.3,0.5,1.2,0.9,1.4c1.1,0.3,2.4,0.8,3.3,0.4c2.1-1,4.3-0.9,6.5-1.4c0.7-0.1,1.5-0.2,1.9-0.7c1.3-1.7,3.1-2.1,5-2.6
	C168.1,224.8,170.1,223.8,171.1,221.5z M117.4,222c-0.9-1.3-1.8-1.2-2.7-1c-3.1,0.8-6.2,1.8-9.2,2.7c-0.5,0.1-1,0.5-1.3,0.9
	c-0.8,1.2-1.9,1.7-3.2,1.9c-2.1,0.4-3.2,1.9-3.9,3.7c-0.1,0.3,0.1,1.1,0.3,1.2c2,1,4,1.6,6.1,1.6c0.1-0.9-0.1-1.7,0.3-2.2
	c0.9-1.4,2.1-2.6,3.2-3.8c0.4-0.4,0.9-0.8,1.5-1.1c1.7-0.8,3.5-1.5,5.3-2.2C114.8,223.2,116,222.7,117.4,222z M96.6,111.2
	c0.5-0.3,0.8-0.5,1-0.7c2.2-2.6,3.6-5.6,5-8.6c0.5-1,0.8-2,1-3c0.1-0.5-0.2-1.4-0.5-1.5c-0.4-0.2-1.4,0-1.6,0.3
	c-1,1.4-2.4,1.6-4,1.7c-1.9,0-2.1,0.4-2.4,2.3c-0.5,2.8,0.5,5.6,0.8,8.3C95.8,110.3,96.2,110.6,96.6,111.2z M130.6,143.4
	c-1.7-0.3-3.3-0.3-4.7-0.9c-1.3-0.6-2.7-1.5-3.6-2.6c-1.6-1.9-2.3-1.3-4-0.5c-1.8,0.9-1.8,3.2-0.2,4.4c1.1,0.8,2.2,1.7,2.9,2.8
	c0.7,1,1.2,1.1,2.2,0.7c1.3-0.5,2.6-1,3.9-1.1C129.1,146.1,129.8,145,130.6,143.4z M229.7,137.4c1.5-1.1,3.2-1.8,4.4-3.4
	c1-1.4,2.2-2.6,4-3.3c1.9-0.8,3.2-2.5,3.8-4.5c0.4-1.2-0.4-2.3-1.8-3c-1.2-0.6-1.6,0.3-2.2,1c-1.8,2.3-3.8,4.4-5.4,6.8
	c-1.2,1.8-2,3.8-3,5.8C229.4,136.8,229.5,137,229.7,137.4z M174.3,257c-0.9,0.5-1.6,0.9-2.4,1.2c-3.2,1.1-6.5,0.4-9.7,0.1
	c-1-0.1-1.8-1.2-2.8-1.8c-1.6-0.9-1.9-0.8-3.2,0.3c-0.5,0.4-1.1,0.9-1.7,1c-1.6,0.3-2.7,1.2-4.4,2.2c1.3,0.5,2.2,1.1,3.1,1.2
	c1.6,0.1,3.2,0.1,4.8-0.1c2.9-0.3,5.8-0.7,8.6-1.1c2-0.2,4-0.5,5.9-0.8C173.5,259.1,174.5,258.7,174.3,257z M260.8,63
	c0.8-0.2,1.1-0.2,1.3-0.4c2.3-1.7,4.7-3.3,7-5.1c1.1-0.8,2-1.9,2.7-3c0.5-0.7,0.7-1.7,0.6-2.6c0-1.2-1-1.9-2-1.3
	c-1.7,1-3.5,2.1-4.7,3.5c-1.7,2.1-2.9,4.6-4.3,7C261.2,61.6,261.1,62.1,260.8,63z M258.9,109c-1.9-0.1-4.1,1-4.6,2.6
	c-0.4,1-0.9,1.7-1.8,2.2c-0.4,0.3-0.9,0.7-1.1,1.2c-0.4,1-2.3,1.2-1.7,2.4c0.5,0.8,1.8,1.4,2.8,1.7c2.5,0.9,3.6,0.5,4.4-2
	c0.7-2.3,1.4-4.7,2-7C259,109.7,258.9,109.3,258.9,109z M96.8,127.5c0.2,0.1,0.4,0.1,0.6,0.2c0.4-0.4,0.8-0.8,1.1-1.2
	c0.9-1.5,1.7-3.1,2.5-4.6c1-1.7,1-2.2-0.4-3.6c-1.3-1.4-2.7-2.8-4.1-4.3c-1,3.5-0.7,7.1-0.2,10.7C96.5,125.6,96.6,126.6,96.8,127.5z
	 M94.7,71.5c0.6-0.3,1-0.3,1.1-0.6c1.4-2.1,2.7-4.2,3.9-6.4c0.4-0.7,0.6-1.8-0.4-2.5c-0.8-0.5-1.6-1.1-2.5-1.6
	c-1.5-0.7-2.6-0.3-3,1.3c-0.2,1-0.1,2.1,0,3.1c0.1,1.6,0.4,3.1,0.6,4.7C94.5,70.2,94.6,70.7,94.7,71.5z M85.8,250
	c0.4,1.8,0.6,2.1,1.5,2.7c0.7,0.5,1.5,0.6,2-0.2c1.1-1.7,3-2,4.7-2.6c2.4-0.9,4.9-1.8,7.3-2.8c0.4-0.1,0.7-0.5,1.4-1.1
	c-2.1-0.2-3.7-0.2-5.1,0.7c-0.9,0.5-1.7,1.1-2.5,1.5c-1.3,0.7-1.9,0.6-3.1-0.4c-0.5-0.5-1.1-0.9-1.6-1.2
	C88.7,247.9,87.2,249,85.8,250z M92,172.8c-1.9-1-2.2-1-3.6-0.6c-2.4,0.5-3.8,2.5-5.5,4c-0.3,0.3-0.4,1.2-0.3,1.7
	c0.2,0.8,0.7,1.4,1.2,2.4C86.7,177.6,90.1,176.1,92,172.8z M61.5,155c1.3-0.5,2.2-0.8,3.1-1.1c1-0.3,2-0.6,3.2-0.9
	c-0.8-0.9-1.4-1.7-2-2.4c-1-1.1-2-2.1-2.9-3.2c-0.7-0.8-1.3-1.6-2.4-1.2c-0.7,0.3-0.9,2-0.1,2.9C61.7,150.6,61.8,152.4,61.5,155z
	 M178.2,132.4c0.2,0,0.5,0,0.8-0.2c2.2-1.2,3.7-3.1,4.8-5.3c0.3-0.5,0.6-1,0.8-1.6c0.5-1.1,1.1-2.1,1.5-3.3c0.1-0.3,0-1-0.3-1.2
	s-0.9-0.1-1.2,0.1c-1.3,0.7-1.9,1.9-2.2,3.3c-0.2,1.5-0.9,2.5-2.2,3.3c-0.6,0.4-1,1.1-1.3,1.8C178.6,130.3,178.4,131.4,178.2,132.4z
	 M94.6,80.5c-0.1,0.3-0.3,0.5-0.3,0.7c-0.1,2-0.1,3.9-0.2,5.9c0,0.4,0,0.8,0.1,1.1c0.3,1.1,1.1,1.5,2.1,0.9c0.8-0.5,1.6-1.2,2.3-1.9
	c0.3-0.3,0.5-0.9,0.4-1.2c-0.3-1.1-0.6-2.2-1.2-3.1C96.9,82,96.1,80.9,94.6,80.5z M247.8,97.6c3.7-0.3,4.7-0.9,6.6-3.4
	c0.5-0.6,0.8-1.3,0-1.8c-1.3-0.8-2.8-1.3-4.3-0.8c-0.4,0.1-0.9,0.8-1.1,1.3C248.6,94.4,248.3,95.9,247.8,97.6z M108.3,64.4
	c0.2,0,0.3-0.1,0.5-0.1c0-0.6,0.2-1.2,0.1-1.7c-0.3-2-0.7-3.9-1.1-5.8c-0.3-1.2-0.6-2.4-1-3.5c-0.5-1.3-1.2-1.4-2.3-0.7
	c-0.7,0.5-1,1.2-0.7,2c0.5,1.5,0.8,3.1,2.1,4.2c0.6,0.5,1,1.5,1.2,2.4C107.4,62.3,107.6,63.5,108.3,64.4z M48.6,164
	c0.6-1.3,1.2-2.1,1.5-2.9c1-2.6-0.9-5-3.6-4.7c-0.4,0.1-1.2,0.7-1.1,1.1C45.5,159.8,46.3,162,48.6,164z M181.8,197.5
	c1.1-0.4,2-1,2.9-1c3.5,0.2,6-1.8,8.5-3.7c0.2-0.1,0.3-0.4,0.7-1.1c-1.2,0.3-1.9,0.5-2.6,0.7c-2.8,0.6-5.2,2.5-8.2,2.4
	C181.6,194.7,181.5,195.3,181.8,197.5z M109.1,91.6c1.9-2.3,1.1-4.7,0.7-7c-0.2-0.9-1.3-1.1-2-0.3c-0.9,1.2-1.6,2.5-2.4,3.8
	C106.7,89.4,107.9,90.5,109.1,91.6z M247.4,131.2c0.6,1,1,1.9,1.7,2.7c0.4,0.5,1.2,1.1,1.8,1.1c0.4,0,0.9-0.9,1.1-1.5
	c0.5-1.2,0.9-2.5,1.3-3.8c0.2-0.8-0.2-1.2-0.9-1.1c-0.7,0.1-1.4,0.3-1.9,0.6C249.5,129.7,248.6,130.4,247.4,131.2z M186.9,280.5
	c0.3-1.4,0.6-2.6,0.9-3.7c0.3-1-0.2-1.7-1-1.6c-1.5,0.2-3.1,0.5-4.5,1.1c-1,0.4-1,1.5-0.2,2C183.6,279.2,185.3,279.8,186.9,280.5z
	 M150,85.9c2.9-1,4.9-3.2,7.3-4.8c0.4-0.3,0.5-1,0.7-1.5c-0.7-0.1-1.1,0.1-1.5,0.3c-1.5,0.6-2.9,1.3-4.5,1.7
	C150,82,149.2,83.4,150,85.9z M201.2,105.4c2.1,0.7,2.7,0.6,3.6-0.6c0.5-0.7,1-1.4,1.6-1.9c1.5-1,1.8-2.3,1.4-3.9
	c-1.7-0.5-1.6-0.4-2.1,0.9c-0.2,0.5-0.5,0.9-0.9,1.3C203.8,102.6,202.6,103.9,201.2,105.4z M190.3,210.1c-1-1.7-1-1.8-2.1-1.8
	c-1.6,0.1-3.4-0.4-4.4,1.6c0.4,0.6,0.8,1.3,1.3,1.8c0.6,0.6,1.3,0.8,2,0.3C188.2,211.4,189.2,210.8,190.3,210.1z M222.5,66.4
	c-1-0.4-1.8,0.2-2.1,0.8c-0.9,1.8-3,3-2.9,5.9c1.4-0.7,2.6-1.1,3.7-1.8c0.4-0.2,0.8-0.8,0.9-1.3C222.3,68.8,222.3,67.6,222.5,66.4z
	 M83.6,286c3.9-1.5,7.8-1.9,11.5-3.6c-0.8-1.5-1.8-1.2-2.7-0.7c-0.5,0.3-1,0.8-1.5,0.9c-1.8,0.5-3.7,0.9-5.5,1.3
	C84.5,284.2,83.5,284.4,83.6,286z M147.1,100c1.1-1,2.1-1.7,2.8-2.6c0.4-0.4,0.6-1.4,0.4-1.8c-0.4-0.5-1.2-0.9-1.9-0.9
	c-0.5,0-1.3,0.5-1.6,1C146.3,96.9,146.1,98.3,147.1,100z M113.7,120.3c-1.3,0.4-1.8,1.5-2.2,2.5c-0.3,0.6-0.5,1.5-0.3,1.8
	c0.3,0.4,1.2,0.5,1.9,0.5c1,0.1,1.6-0.5,1.6-1.5C114.6,122.4,114.5,121.3,113.7,120.3z M202.8,188.7c-3,0.6-3.9,1.1-4.8,2.8
	c1.7,0.1,3.4,0.7,5.3-0.3C203.1,190.3,203,189.5,202.8,188.7z M153.2,267.9c0.5,0.7,1,1.6,1.6,2.1c0.5,0.4,1.4,0.6,2,0.4
	c0.8-0.2,0.6-1,0.4-1.7c-0.3-0.9-0.5-1.9-1.6-2C154.6,266.6,153.7,266.8,153.2,267.9z M215.7,43.2c-0.1,1.9-2.6,3-1.9,5.4
	c1.9-0.7,3.3-2,3.4-3.3C217.2,44.5,217.3,43.5,215.7,43.2z M162.5,39.1c-1.2-0.8-2.1-1-3.1-0.2c-0.9,0.7-1.1,2.5-0.4,3.7
	C160.4,41.8,161.8,40.9,162.5,39.1z M124.1,155.4c-0.1,2.4,1.3,3,3.9,1.8C127.5,154.5,127.3,154.3,124.1,155.4z M111.4,112.5
	c0.8-1.1,0.7-2,0.2-2.9c-0.2-0.4-0.9-0.7-1.3-0.6c-0.3,0.1-0.8,0.8-0.7,1.2C109.8,111.2,110,112.2,111.4,112.5z M228.2,176.5
	c0.7,0.5,1.1,0.9,1.5,1.1c0.7,0.3,1.4,0,1.7-0.7c0.2-0.4,0.2-1.1,0-1.5c-0.4-0.7-1.2-0.6-1.8-0.2
	C229.2,175.6,228.8,175.9,228.2,176.5z M96.7,143.3c0.2,0,0.5,0.1,0.7,0.1c0.3-0.5,0.8-0.9,1-1.4c0.3-0.7-0.2-1.2-0.8-1.4
	c-0.8-0.2-1.2,0.2-1.2,1C96.3,142.2,96.6,142.8,96.7,143.3z M109.7,68.6c-0.4-0.4-0.7-0.7-1-1c-0.3,0.4-0.7,0.8-1,1.3
	c-0.1,0.1,0.6,0.8,0.8,0.7C109,69.4,109.3,69,109.7,68.6z M70,155.3c-0.4,0.4-0.8,0.7-0.9,1c-0.1,0.1,0.4,0.7,0.6,0.7
	c0.4,0,0.7-0.3,1.1-0.5C70.6,156.2,70.4,155.8,70,155.3z M187.5,177.8c1.5,0.5,2.2-0.4,2.9-1.2C189.3,176.6,188.2,176.3,187.5,177.8
	z M201,115.8c-0.6-0.3-1-0.5-1.3-0.5s-0.7,0.4-0.7,0.6c0,0.3,0.3,0.7,0.6,0.7C199.9,116.7,200.2,116.4,201,115.8z M254.2,80.8
	c-0.5-0.3-0.9-0.6-1.1-0.5c-0.3,0.1-0.5,0.5-0.7,0.7c0.3,0.2,0.6,0.5,0.8,0.5C253.5,81.5,253.7,81.2,254.2,80.8z M200.5,152
	c-0.9-0.3-1.4,0-1.8,0.9C199.6,153.1,200.2,153,200.5,152z M144.8,112.3c-0.2,0-0.3,0-0.5,0.1c0.1,0.4,0.1,0.8,0.2,1.3
	c0.1,0,0.2,0,0.4,0C144.8,113.1,144.8,112.7,144.8,112.3z"/>
</svg>
