<?xml version="1.0" encoding="utf-8"?>
<!-- Generator: Adobe Illustrator 26.0.1, SVG Export Plug-In . SVG Version: 6.00 Build 0)  -->
<svg version="1.1" id="Layer_1" xmlns="http://www.w3.org/2000/svg" xmlns:xlink="http://www.w3.org/1999/xlink" x="0px" y="0px"
	 viewBox="0 0 226.8 226.8" style="enable-background:new 0 0 226.8 226.8;" xml:space="preserve">
<style type="text/css">
	.st0{fill:#001E36;}
	.st1{fill:#31A8FF;}
</style>
<g id="Layer_2_00000074424206359136407340000012048361431374598570_">
	<g id="Surfaces_00000070838728731354169020000005369536013471463098_">
		<g id="Photo_Surface">
			<g id="Outline_no_shadow_00000022545678453197317810000006533505696156473518_">
				<path class="st0" d="M59.5,29.7h111.2c16.9,0,30.5,13.6,30.5,30.5V167c0,16.9-13.6,30.5-30.5,30.5H59.5
					C42.6,197.5,29,183.9,29,167V60.1C29,43.3,42.6,29.7,59.5,29.7z"/>
			</g>
		</g>
	</g>
	<g id="Outlined_Mnemonics_Logos_00000050657808936230416150000010136827341835566486_">
		<g id="Ps">
			<path class="st1" d="M67.7,147.3V73.6c0-0.5,0.2-0.8,0.7-0.8c1.2,0,2.4,0,4-0.1c1.7-0.1,3.5-0.1,5.5-0.1c1.9-0.1,4-0.1,6.2-0.1
				s4.4-0.1,6.5-0.1c5.9,0,10.8,0.7,14.8,2.2c3.6,1.2,6.9,3.2,9.6,5.9c2.3,2.3,4.1,5.1,5.2,8.2c1.1,3,1.6,6.1,1.6,9.3
				c0,6.2-1.4,11.3-4.3,15.3s-6.9,7-11.5,8.7c-4.9,1.8-10.3,2.4-16.1,2.4c-1.7,0-2.9,0-3.6-0.1c-0.7-0.1-1.7-0.1-3.1-0.1v23
				c0.1,0.5-0.3,0.9-0.8,1c-0.1,0-0.1,0-0.3,0H68.6C68,148.3,67.7,148,67.7,147.3z M83.4,86.6v24.1c1,0.1,1.9,0.1,2.8,0.1H90
				c2.8,0,5.6-0.4,8.2-1.3c2.3-0.6,4.3-2,5.9-3.8c1.5-1.8,2.2-4.2,2.2-7.4c0.1-2.2-0.5-4.4-1.6-6.4c-1.2-1.9-2.9-3.3-5-4.1
				c-2.7-1.1-5.5-1.5-8.5-1.4c-1.9,0-3.5,0-4.9,0.1C84.9,86.5,83.9,86.5,83.4,86.6L83.4,86.6z"/>
			<path class="st1" d="M166.7,106.3c-2.2-1.1-4.4-1.9-6.9-2.4c-2.7-0.6-5.3-0.9-8-0.9c-1.4-0.1-2.9,0.1-4.3,0.5
				c-0.9,0.2-1.7,0.7-2.2,1.4c-0.4,0.6-0.6,1.3-0.6,1.9s0.3,1.3,0.7,1.9c0.6,0.8,1.5,1.4,2.4,1.9c1.6,0.9,3.4,1.6,5.1,2.4
				c3.9,1.3,7.6,3.1,11,5.2c2.4,1.5,4.3,3.5,5.7,6c1.1,2.3,1.7,4.8,1.6,7.4c0.1,3.4-0.9,6.7-2.8,9.5c-2,2.9-4.8,5.1-8,6.4
				c-3.5,1.5-7.8,2.3-13,2.3c-3.3,0-6.5-0.3-9.8-0.9c-2.5-0.4-5-1.2-7.3-2.3c-0.5-0.3-0.9-0.8-0.8-1.4v-12.5c0-0.2,0.1-0.5,0.3-0.6
				c0.2-0.1,0.4-0.1,0.6,0.1c2.8,1.6,5.7,2.8,8.9,3.5c2.7,0.7,5.6,1.1,8.5,1.1c2.7,0,4.7-0.4,6-1c1.1-0.5,1.9-1.7,1.9-3
				c0-1-0.6-1.9-1.7-2.9c-1.1-0.9-3.5-2-7-3.4c-3.7-1.3-7-3-10.2-5.2c-2.2-1.6-4.1-3.7-5.5-6.1c-1.1-2.3-1.7-4.8-1.6-7.3
				c0-3.1,0.9-6,2.4-8.7c1.8-2.9,4.4-5.2,7.5-6.6c3.4-1.7,7.6-2.5,12.7-2.5c2.9,0,6,0.2,8.9,0.6c2.2,0.3,4.2,0.9,6.2,1.6
				c0.3,0.1,0.6,0.4,0.7,0.6c0.1,0.3,0.1,0.6,0.1,0.9v11.7c0,0.3-0.1,0.6-0.4,0.7C167.3,106.5,167,106.5,166.7,106.3z"/>
		</g>
	</g>
</g>
</svg>
