<?xml version="1.0" encoding="utf-8"?>
<!-- Generator: Adobe Illustrator 26.0.1, SVG Export Plug-In . SVG Version: 6.00 Build 0)  -->
<svg version="1.1" id="Layer_1" xmlns="http://www.w3.org/2000/svg" xmlns:xlink="http://www.w3.org/1999/xlink" x="0px" y="0px"
	 viewBox="0 0 226.8 226.8" style="enable-background:new 0 0 226.8 226.8;" xml:space="preserve">
<style type="text/css">
	.st0{fill:#00005B;}
	.st1{fill:#9999FF;}
</style>
<g transform="matrix(1.000000125 0 0 1.000000125 159.9999625 83)">
	<path class="st0" d="M-100.4-53.3H10.7c16.8,0,30.5,13.6,30.5,30.5V84c0,16.8-13.6,30.5-30.5,30.5h-111.1
		c-16.8,0-30.5-13.6-30.5-30.5V-22.8C-130.9-39.7-117.3-53.3-100.4-53.3z"/>
	<g>
		<path class="st1" d="M-90,64.3V-9.4c0-0.5,0.2-0.8,0.7-0.8c1.2,0,2.4,0,4-0.1c1.7-0.1,3.5-0.1,5.4-0.1c1.9-0.1,4-0.1,6.2-0.1
			c2.2-0.1,4.4-0.1,6.5-0.1c5.9,0,10.8,0.7,14.8,2.2c3.6,1.2,6.9,3.2,9.6,5.9c2.3,2.3,4.1,5.1,5.2,8.2c1.1,3,1.6,6.1,1.6,9.3
			c0,6.2-1.4,11.3-4.3,15.3c-2.9,4-6.9,7-11.5,8.7c-4.9,1.8-10.2,2.4-16.1,2.4c-1.7,0-2.9,0-3.6-0.1s-1.7-0.1-3.1-0.1v23
			c0.1,0.5-0.3,0.9-0.8,1h-13.9C-89.8,65.3-90,65-90,64.3L-90,64.3z M-74.4,3.6v24.1c1,0.1,1.9,0.1,2.8,0.1h3.8
			c2.8,0,5.6-0.4,8.2-1.3c2.3-0.6,4.3-2,5.9-3.8c1.5-1.8,2.2-4.2,2.2-7.4c0.1-2.2-0.5-4.4-1.6-6.4c-1.2-1.9-2.9-3.3-5-4.1
			c-2.7-1.1-5.5-1.5-8.5-1.4c-1.9,0-3.5,0-4.9,0.1C-72.9,3.5-73.9,3.5-74.4,3.6L-74.4,3.6z"/>
		<path class="st1" d="M-25.8,7.8h12.5c0.7,0,1.3,0.5,1.5,1.1c0.2,0.6,0.4,1.1,0.4,1.8c0.1,0.7,0.3,1.5,0.4,2.2
			c0.1,0.8,0.1,1.6,0.1,2.6c2.1-2.5,4.7-4.6,7.7-6.2C0.1,7.5,3.9,6.6,7.7,6.6c0.5-0.1,0.9,0.3,1,0.8v14.3c0,0.6-0.4,0.8-1.1,0.8
			c-2.6-0.1-5.2,0.1-7.7,0.7c-2.1,0.4-4.1,1.1-6,1.9c-1.4,0.6-2.7,1.5-3.7,2.7v36.5c0,0.7-0.3,1-0.9,1h-14.1
			c-0.6,0.1-1.1-0.3-1.1-0.9v-40c0-1.7,0-3.5-0.1-5.4c-0.1-1.9-0.1-3.7-0.1-5.6c0-1.6-0.1-3.2-0.3-4.9c-0.1-0.4,0.1-0.7,0.5-0.8
			C-26,7.7-25.9,7.7-25.8,7.8L-25.8,7.8z"/>
	</g>
</g>
</svg>
